<svg xmlns="http://www.w3.org/2000/svg" viewBox="0 0 500 500"><g id="freepik--background-complete--inject-93"><polygon points="313.15 199.51 295.6 215.47 277.44 220.26 287.61 203.84 291.02 193.42 289.27 193.46 286.14 202.55 281.32 208.37 267.19 185.09 264.09 185.96 279.12 210.54 262.35 234.14 260.58 233.52 260 232.4 260.14 224.84 243.79 195.75 266.47 156.59 263.57 156.31 240.63 193.79 238.25 193.79 221.64 170.01 232.72 149.03 229.82 148.75 218.74 167.5 214 159.94 210.04 144.28 207.41 144.28 211.63 161.9 222.17 179.53 205.03 176.45 185.52 159.1 186.05 136.17 183.94 136.17 183.15 156.87 172.07 140.36 169.7 140.36 179.46 156.59 203.72 179.25 222.96 184.36 245.11 223.44 242.21 272.96 235.88 276.59 228.41 303.73 259.3 303.73 259.08 281.35 259.62 252.7 278 223.04 295.42 218.92 314.9 199.47 313.15 199.51" style="fill:#e0e0e0"></polygon><polygon points="274.28 303.88 284.29 273.5 303.01 268.4 335.54 285.73 345.96 304.33 300.1 304.25 274.28 303.88" style="fill:#e0e0e0"></polygon><polygon points="124.81 303.12 113.23 268.01 91.6 262.11 53.98 282.14 41.94 303.65 94.96 303.55 124.81 303.12" style="fill:#e0e0e0"></polygon><path d="M316.75,130.27c.59-4.28-5.45-7.8-10-8.16-2.16-.18-4.41.15-6.46-.56-4.44-1.55-6.22-7.28-10.55-9.11-3.24-1.37-7-.15-10.11,1.43s-6.24,3.57-9.75,3.79c-3,.2-6.36-.93-9,.56-2,1.11-3,3.4-4.87,4.75s-4.13,1.61-6.36,1.73-4.53.14-6.55,1.07-3.71,3.07-3.29,5.26Z" style="fill:#ebebeb"></path><path d="M137.25,76c.65-4.67-5.95-8.52-10.9-8.92-2.37-.19-4.82.17-7.06-.61-4.85-1.69-6.79-8-11.52-10-3.54-1.49-7.61-.16-11,1.56S89.91,62,86.07,62.24c-3.33.21-6.95-1-9.87.6C74,64.06,72.89,66.56,70.89,68s-4.52,1.75-7,1.88-4.95.16-7.16,1.17-4.05,3.36-3.59,5.75Z" style="fill:#ebebeb"></path><path d="M411.9,49.47c.4-3-3.77-5.39-6.91-5.65-1.49-.12-3.05.11-4.46-.38-3.08-1.07-4.3-5-7.3-6.3-2.24-1-4.82-.11-7,1s-4.32,2.47-6.74,2.63c-2.11.13-4.4-.65-6.25.38-1.38.77-2.1,2.36-3.37,3.29a7.92,7.92,0,0,1-4.39,1.19,12.58,12.58,0,0,0-4.54.74A3.6,3.6,0,0,0,358.68,50Z" style="fill:#ebebeb"></path><path d="M220.16,40.42c.4-3-3.77-5.39-6.91-5.64-1.49-.12-3.05.11-4.46-.39-3.08-1.07-4.3-5-7.3-6.3-2.24-.94-4.82-.1-7,1s-4.32,2.47-6.74,2.62c-2.11.14-4.4-.64-6.25.39-1.38.76-2.1,2.35-3.37,3.29a8.09,8.09,0,0,1-4.39,1.19,12.37,12.37,0,0,0-4.54.74A3.58,3.58,0,0,0,166.94,41Z" style="fill:#ebebeb"></path><path d="M464.57,109.84c.38-2.77-3.53-5-6.46-5.28-1.4-.12-2.86.1-4.19-.36-2.87-1-4-4.72-6.82-5.9-2.1-.89-4.52-.1-6.55.92s-4,2.31-6.31,2.46c-2,.13-4.13-.61-5.86.36-1.28.72-2,2.2-3.15,3.08a7.47,7.47,0,0,1-4.11,1.11,11.68,11.68,0,0,0-4.25.7,3.36,3.36,0,0,0-2.13,3.4Z" style="fill:#ebebeb"></path></g><g id="freepik--Floor--inject-93"><path d="M488.68,304.22c0,.14-106.85.26-238.63.26s-238.65-.12-238.65-.26S118.23,304,250.05,304,488.68,304.08,488.68,304.22Z" style="fill:#263238"></path><path d="M460.39,356.32c-9.16-17.79-30.15-39.37-45.94-51.66L67.78,304c-13.57,7-9.92,4.7-20.2,16S26.16,351.72,31.07,366.2C34.83,377.29,40,392,49.73,398.55c25.21,16.94,64.54,16,94.9,16.92,29.4.86,60.31-6,87.35,5.53,18.25,7.82,32.1,23.07,48.27,34.6,42.07,30,102,32.5,146.4,6.12,18.27-10.86,34.4-26.93,40.62-47.26C473.13,395.33,469.55,374.11,460.39,356.32Z" style="fill:#ae7461"></path><path d="M342.25,342.75c-.35,4.28-.75,9.23-1.19,14.64l1-.14-1,.29,0,.44,0,.16-.15,0-22,5.92-4.58,1.22q.54.58,1.11,1.14l6.92,6.88,7.31,7.27,21.22.3,5.77,0-.11,0,.64-.22L369,376.63l5.58-1.92c-.48-3.21-.94-6.4-1.38-9.36l0-.21.2-.06,31.38-10.93-5.44-10.67-39.7-6.34c-.58.26-2.14.8-4.44,1.55C352.1,339.69,347.69,341.08,342.25,342.75Z" style="fill:none"></path><path d="M340.57,357.78v-.1l-6.82,1.92Z" style="fill:none"></path><path d="M265.46,327l0-.08-.12-.51-19.45,4.72-5.24,1.25-1.35.32-.26.05,4.86,6.48.18.24-.29.08-17.93,4.6c-.47,3.29-1,6.84-1.49,10.47.22.4.44.81.67,1.21l11.54-.8,14.56-1h.06l.82.17v0l4.58-11,0-.05.05,0,10.86-7.36c-.71-3-1.37-5.82-2-8.43l-.2-.06Z" style="fill:none"></path><path d="M65.56,313.67l0,0-14.84,7.78c-.44,4.8-.92,10.1-1.43,15.69v.07c.85.49,4.05,2.76,7.83,5.56S64,348,64.68,348.65l.09,0,15.68-5.51c0-4.49,0-8.85,0-12.92L73,317.48l-.08-.14a32.91,32.91,0,0,1-3.72-1.65A30.68,30.68,0,0,1,65.56,313.67Z" style="fill:none"></path><path d="M342,342.43l13.07-3.93,3.55-1.1.84-.28-2.26-.36-.17,0v-.17c0-2.58,0-5.1,0-7.39l-22.81-4.84-.17,0-.95.49-3.26,1.55-10.69,4.91,3.53,1.71c5.38,2.6,10.23,5,13.74,6.73l4.13,2.1c.66.34,1.1.57,1.32.71v0Z" style="fill:none"></path><path d="M213.15,367.25l-26.57,6.09-6,15.32,1.66.57,14.25,4.88.07,0,0,.05.17.21,7,.93h0l.24-.15,16.39-10.23,4.87-3,1.33-.79.21-.12-.06,0,.11-.21c1.89-3.72,3.75-7.39,5.5-10.82-2.59-4.67-5.12-9.23-7.53-13.59l-.48.23Z" style="fill:none"></path><path d="M248.05,354.75l-21.83,3.18c2.15,3.86,4.37,7.86,6.63,11.94l.07.11-.06.12-5.45,10.73,14.7,8.5,9.94,5.75.09.06,0,.07c.23-.08.61-.19,1.17-.34l3.6-.92,19.82-5.54c2.18-.64,4.14-1.22,5.79-1.69l3.85-1.08,1-.25-.23-.09.59-.22,11.67-4.28-1.61-.89-3.63-2-12.92-3.95-16.73-1.45-2-8.57-.86-2.68-9-6.39-1.5-.32Z" style="fill:none"></path><path d="M225.32,356.31l.55,1-.16-1Z" style="fill:none"></path><path d="M380.64,393.82c-1.17,2.31-2.81,5.48-4.68,9,.07.23.13.48.2.73,1.09,4.09,2,7.8,2.72,10.49.3,1.27.56,2.33.76,3.19.1.41.16.71.19.91l.11,0,.09,0,.05.08,8.37,14.54.14-.16.92-1,3.45-3.62,11.69-12,.06-.06h.1l2.42-.16,18.35-1.14,5.56-.29,1.52,0h.15L429.55,412l-.09-.06v-.11q0-5.17,0-10.6c-10.87-2.71-22.48-5.61-34.7-8.47-3.07-.71-6.18-1.43-9.33-2-.4-.09-.78-.13-1.16-.18s-.85-.08-1.24-.17l-.63-.16c-.07.17-.19.44-.37.82Z" style="fill:none"></path><path d="M350.87,381.17c-5.05,0-12.22,0-20.77-.12l5.67,5.64.07.07v.1q.17,5.72.33,11.25v.12l-.1.08c-3,2.06-5.83,4.11-8.77,6l25.18,4.08h0l25.09,9,2.11.75c-.07-.19-.15-.47-.26-.82l-.93-3.15c-.75-2.67-1.77-6.36-2.85-10.45-.08-.28-.15-.57-.22-.83l0-.09.05-.09c1.89-3.56,3.6-6.74,4.86-9,.6-1.06,1.11-2,1.51-2.68l.45-.75c-.55-.15-1.11-.3-1.65-.47-1.57-.48-3.12-1-4.67-1.55-6.21-2.18-12.47-4.58-18.82-7l-.18-.08h-.11C355.48,381.13,353.45,381.16,350.87,381.17Z" style="fill:none"></path><path d="M417.25,390.4v-.09c0-2.26,0-4.57,0-6.92v-.23h19.34l22.55,4.18q-.79-5.73-1.61-11.61c-.22-1.55-.43-3.1-.64-4.54l-16.07-8.31-.13-.07v-.73L429,350.58l-11.93-3h0l-.16,0v0c-.63.49-2.92,1.91-5.69,3.53s-5.15,2.9-5.88,3.21l.11.2-.27.09-31.44,11c.44,3,.91,6.15,1.38,9.36l0,.21-.2.06-5.77,2L358,380.94h.47l.54,0a3.83,3.83,0,0,1-.54.09l-.24,0c6,2.35,12,4.63,17.93,6.72,1.55.54,3.1,1.06,4.65,1.54.77.24,1.55.47,2.33.64.4.08.72.11,1.16.17a12.13,12.13,0,0,1,1.23.18c3.18.61,6.28,1.33,9.35,2.05,12,2.81,23.37,5.66,34.06,8.35l-11.6-10.21Z" style="fill:none"></path><path d="M335.36,387,322,373.68l-6.93-6.88-.14-.14-1.29-1.28-.31-.31h0c-.57-.61-1.13-1.23-1.7-1.86l-3.31-3.63-3.09-.78c-6.45-1.59-12.76-3.3-18.88-4.6l.18.09-2.81,8.78-8.56-1.4L256,355.55l-2.25-.47,8.23,5.83.06,0,0,.08,3.15,9.75h8.26l4.34,0,4.34,0h.15l0,0,15.7,8.74,2.08,1.16.48.27-.13,0c2.55-.09,7.59-.17,13.39-.19,8.38,0,15.17,0,15.17.17a14.63,14.63,0,0,1-2.3.15h1.54s-14.89,1.13-17.72,1.33a34.32,34.32,0,0,1-8.42-1.19l-2.25,0-11.37,4.17,21.75,9.11.1.05,0,.1q1.88,6.06,3.64,11.77h0l.65-.12,2.53-.44,9.32-1.55c3-1.93,6.07-4.1,9.17-6.27C335.58,394.38,335.48,390.7,335.36,387Z" style="fill:none"></path><path d="M283.9,355.93l.76-1.23a2.64,2.64,0,0,1,.28-.41,2,2,0,0,1-.22.44c-.17.32-.41.73-.7,1.26l-1.16,2,2.53-4-.5-.11-.21,0v-.21c.24-6.23.48-12.32.7-18.16-1.65-.72-11.62-5.11-16-7l-3.46-1,2,8.36,0,.12-.1.07L257,343.4l-4.46,10.81.26.19,28.33,6.18Z" style="fill:none"></path><path d="M313.85,361.1l26.75-3.65c.48-5.49.91-10.53,1.29-14.86v0c-.23-.08-.7-.28-1.39-.6L336.29,340c-3.54-1.67-8.42-4-13.8-6.61l-4-1.93L286,333.32c-.24,6.42-.49,13.2-.76,20.12,2.63.53,5.29,1.15,8,1.82l17.11,3.16Z" style="fill:none"></path><path d="M416.83,347.37l-2.53-7.69,0-.12.09-.09,8.68-9.15L407,327c-.54,1.38-1.85,4.37-3.44,7.82-1.86,4-3.49,7.38-4,8.21l0,.1c1.75,3.44,3.66,7.17,5.59,10.95.64-.49,2.92-1.91,5.69-3.52S416.13,347.65,416.83,347.37Z" style="fill:none"></path><path d="M157.64,346.66l-29.11-1.28s-3.17,1.42-4.63,2.16l-6.7,6.85c-.2,3.22-.4,6.54-.61,9.93,0,.6-.07,1.19-.11,1.76l25.66-1,18.51-7,5.2-1.92,1.38-.5.22-.07c-1.53-1.78-3-3.53-4.52-5.25Z" style="fill:none"></path><path d="M116.72,354.18l.07-.07h0l-7.08-7.37-21.55-2-7.25-10.53c0,2.94,0,6,0,9.09v.16l-.16.06L65.1,349v3.31l2.77,15.75-15.1,12.68,3.51,3.36.07.07v.09c1.23,0,7,.5,14,1.2,6.76.68,12.4,1.34,13.81,1.59l.14-.07,1.75-.94,13.73-7.16.05,0h15.26c.47-6.9.93-13.55,1.37-19.86.1-1.61.2-3.2.3-4.76Z" style="fill:none"></path><path d="M200.79,321.79,197,323l4.75-1.42Z" style="fill:none"></path><path d="M334.9,417.82l14.91,18.92.1.14-.11.12q-3.93,4-7.5,7.81c.24,0,.69.13,1.35.28l4.27,1c3.6.88,8.56,2.13,14,3.54s10.43,2.71,14,3.68l4.23,1.16,1.35.42L388,433.09l-8.35-14.45-2.24-.8-25.07-9-25.46-4.29-.06,0Z" style="fill:none"></path><path d="M225.46,344l0-.15.15,0,17.78-4.52L238.74,333l-11-2.82-.07,0,0-.06-6.81-11.23-1.3-.75-1.06.21-.42.08-7.44,3.72L188.93,328s-2.68,6.91-3.71,9.62c-.06.4-.11.8-.17,1.19L196,341c7.39.95,26.63,3.38,29.36,3.72C225.39,344.46,225.43,344.2,225.46,344Z" style="fill:none"></path><path d="M167.56,355.75h0v0l0,0-.24.1-1.35.55-5.16,2-18.48,7.15h-.07l-25.85,1.05c-.19,2.85-.39,5.76-.59,8.71l.33.15,1.55.72,5.73,2.79,19.37,9.61,7.86-.77,27.87-2.64,4.6-5.86,1.25-1.56,1.78-4.51-16.57-15.91C168.87,356.79,168.2,356.27,167.56,355.75Z" style="fill:none"></path><path d="M224.85,348.18l0-.18-.74-.17A3.16,3.16,0,0,1,224.85,348.18Z" style="fill:none"></path><path d="M225.54,382l-4.37,5.64-14.86,9.87c.41.46.81.93,1.22,1.4l5.76,6.69,15.3,6.2,4.44,1.85,1.18.51.11.06.2-.08,20.38-7.43q-1.58-5.54-3.18-11.25l-9.86-5.7L227,381.14l-.08-.05-.22.16Z" style="fill:none"></path><path d="M164.68,389.89l5.63-.33c3.07-.2,5.54-.36,7.25-.5.86-.05,1.52-.14,2-.17l.4-.06h0Z" style="fill:none"></path><path d="M181.81,381.27l2.18-2.72.18-.47c-.26.37-.57.79-1,1.32Z" style="fill:none"></path><path d="M221.81,358.12c-.83.53-1.64,1.08-2.44,1.62l2.86-1.88Z" style="fill:none"></path><path d="M189.07,370.44l5.26-1.52,18.72-5.3c1.74-1.26,3.57-2.57,5.5-3.9,1-.67,2-1.34,3-2a24.81,24.81,0,0,1,3-1.74l-.66-1.19,0-.07v-.08q.48-3.28.93-6.43a11.59,11.59,0,0,0-2-.67L200,342.22l-15.26-3h0l-26.62,4.89,9.79,11.33,19.51,15.44.11.09.2-.06Z" style="fill:none"></path><path d="M406.85,326.94l-9.8-9.13,0,0v0h0c-.77,0-6.22-.63-12.83-1.54s-12.1-1.76-12.79-2v0h-.07l-22.46.06-14.16,9.75,22.6,4.74.15,0V329c0,2.28,0,4.8,0,7.37l42,6.66h0c.29-.89,1.77-4.33,3.65-8.4C404.73,331.19,406.15,328.24,406.85,326.94Z" style="fill:none"></path><path d="M120,402.87h-.47l5.08,4.08C123,405.59,121.5,404.23,120,402.87Z" style="fill:none"></path><path d="M56.35,384.28v-.09l-.07-.07-3.51-3.36-.19.16-2-2.2,7-7.16-6,5.53-1.53,1.43c.09.1.16.18.14.2s-.11,0-.24-.11l-.12.11.19.18,5.76,5.5v7.79c-1.3,2-2.6,3.95-3.91,5.9l.09.06h0l4.07-5.89-.39,1c.2-.3.4-.6.59-.9l0-.06v-8c-.15,0-.25-.06-.24-.07S56.2,384.27,56.35,384.28Z" style="fill:#6f4439"></path><path d="M65.1,352.33V349l15.66-5.53.16-.06v-.16c0-3.11,0-6.15,0-9.09l0-.07-.17-4s.09.07.22.23v-.29l0-.06c-2.55-4.32-5-8.48-7.33-12.43l29.63,0h0l22.49-3.25h0l0-.06c.54-2.47,1-4.37,1.25-5.67l.31-1.46.09-.5-.14.49c-.08.34-.19.82-.35,1.45l-1.31,5.6-22.44,3.11-30-.05H73c.14.11.23.18.22.21s-.12,0-.26,0l.08.14,7.45,12.71c0,4.07,0,8.43,0,12.92l-15.68,5.51-.09,0c.12.11.19.18.17.2s-.09,0-.24-.11v5.81l.24-3.6Z" style="fill:#6f4439"></path><path d="M115.26,379.12h0l.27-3.91h0a.67.67,0,0,1,.22.08c.2-3,.4-5.86.59-8.71H116l0-.28.12-2c.11-1.78.22-3.53.33-5.26-.44,6.31-.9,13-1.37,19.86H99.79l-.05,0L86,386.06l-1.75.94-.14.07a1,1,0,0,1,.35.09,1.65,1.65,0,0,1-.54,0l-.54.31-.23.13-.11.06a.71.71,0,0,0-.17.21.59.59,0,0,0,0,.26l.06.18a2.7,2.7,0,0,0,.18.25,9.44,9.44,0,0,0,.82.74v0l-.73-1.4.24.15h0l.21-.13.86-.47,1.75-.93,13.67-7.14h15.57v-.09a1.05,1.05,0,0,1-.23-.14Z" style="fill:#6f4439"></path><path d="M127.67,343.05h.24c-.86-3.83-1.69-7.52-2.47-11V332l0,0c-1.11-1.14-2.18-2.28-3.19-3.43-.5-.58-1-1.15-1.43-1.75a3.24,3.24,0,0,1-.5-.89h9.2l14.12,0h.35l-.28-.21-11.14-8.51-2.92-2.21-1-.74s.33.28,1,.79l2.88,2.26,10.81,8.39-13.78,0h-9.23a.34.34,0,0,0-.25.12.36.36,0,0,0-.06.25,3.14,3.14,0,0,0,.56,1.06c.45.61.94,1.2,1.45,1.78,1,1.15,2,2.28,3.15,3.42.77,3.45,1.59,7.14,2.45,11l.06-.06Z" style="fill:#6f4439"></path><path d="M101.93,402.62h17.25l.3.25H120c1.55,1.36,3.08,2.72,4.61,4.08l4,3.24,12.07,5.17H141l-.06-.11,0-.07-.08,0-12-5.16-8.52-7.55-.07-.06H102l-.16-.16-8.1-7.74,0,0,0,0-2.51-1.34,2.4,1.56Z" style="fill:#6f4439"></path><path d="M179.93,388.83h0Z" style="fill:#6f4439"></path><path d="M186.39,325.93l.15-.05h0l-7.94-3.42,0,0h0l-19.51,0,13.29-5,.08,0,0-.08-1.55-6.7h0v0l-2.53-3c-.57-.68-.88-1-.88-1s.27.37.83,1.06l2.47,3.05c.39,1.76.88,4,1.47,6.62l-14,5.18-.72.27h.77l20.25,0,7.85,3.41,0-.13Z" style="fill:#6f4439"></path><path d="M167.54,355.74h0c.64.52,1.31,1,2,1.56l-1.81-1.74-.22.11,0,0Z" style="fill:#6f4439"></path><path d="M163.72,351l-.79-.56c1.49,1.72,3,3.47,4.52,5.25a.72.72,0,0,1,.26-.07L187.22,371l.27-.1-.11-.09-19.51-15.44-9.79-11.33,26.62-4.89-.18,0,0-.22,0-.13-27,4.9-.39.07.1.12.33,0Z" style="fill:#6f4439"></path><path d="M197.16,395.3l-.79-.95.37,0-.17-.21,0-.05-.07,0-14.25-4.88-1.66-.57,6-15.32-.3.07-.19-.19-1.78,4.51,0,0a3,3,0,0,1,.47-.53,6,6,0,0,1-.39.59l-.24.31-.18.47.52-.65-4.3,10.91h0a1.12,1.12,0,0,1-.31.09l0,.06.25.08,1.91.66,14.19,4.86q5.16,6.24,10.15,12.26l-11.94,7.4.88,0,11.55-7.15.24-.14-.18-.22-7.28-8.81-.31,0Z" style="fill:#6f4439"></path><path d="M252.1,395.3l.05,0-.22,0s.09-.05.23-.09l0-.07-.09-.06-9.94-5.75-14.7-8.5,5.45-10.73.06-.12-.07-.11c-2.26-4.08-4.48-8.08-6.63-11.94l-.25,0-.1-.67-.55-1-.33,0-.15.07c2.41,4.36,4.94,8.92,7.53,13.59-1.75,3.43-3.61,7.1-5.5,10.82l-.11.21.06,0a1.13,1.13,0,0,1,.27-.13,1.06,1.06,0,0,1-.21.17l.08.05,14.9,8.62,9.86,5.7q1.6,5.71,3.18,11.25l-20.38,7.43-.2.08a1.13,1.13,0,0,1,.28.14,1.36,1.36,0,0,1-.34-.09l.15.22,5.22,8.1,1.15,2.91.62.36c-.44-1.14-.9-2.29-1.36-3.46v0h0l-2.68-4.18-.21.09-2.33-3.92,20.55-7.45c-.1,0-.16,0-.15-.05a.69.69,0,0,1,.25,0l0-.07c-.9-3.21-1.82-6.47-2.75-9.75l-.24.06Z" style="fill:#6f4439"></path><path d="M209.49,312.09,203.88,308l-1.46-1.05-.5-.35s.15.14.47.39l1.43,1.09,5.56,4.19h0l9.5,5.49.4-.07Z" style="fill:#6f4439"></path><path d="M220.78,318.84l6.81,11.23,0,.06.07,0,11,2.82,4.67,6.27-17.78,4.52-.15,0,0,.15c0,.25-.07.51-.11.76l.33,0-.75,3.27-.06,0,0,.18c.06.05.1.1.08.13s0-.06-.09-.1q-.45,3.15-.93,6.43v.08l0,.07.66,1.19.25-.12h.21c-.23-.4-.45-.81-.67-1.21.51-3.63,1-7.18,1.49-10.47l17.93-4.6.29-.08-.18-.24-4.86-6.48-.21,0,.2-.06,0-.06,0-.05-.06,0-11.05-2.77L221,318.66v0l0,0-1.05-.6-.41.08Z" style="fill:#6f4439"></path><path d="M276.89,453.13l.26.2.09-.71-.27-.16C277,452.68,276.92,452.91,276.89,453.13Z" style="fill:#6f4439"></path><path d="M315.42,366.46q-.57-.56-1.11-1.14h0l15.32,15.28h0l-7.31-7.27Z" style="fill:#6f4439"></path><path d="M336.17,398.23v-.12q-.17-5.53-.33-11.25v-.1l-.07-.07-5.67-5.64h-.67l-.07-.06-14.44-14.32.14.14,6.93,6.88L335.36,387c.12,3.73.22,7.41.33,11-3.1,2.17-6.13,4.34-9.17,6.27l.23,0h.05l.5.08c2.94-1.88,5.8-3.93,8.77-6Z" style="fill:#6f4439"></path><path d="M285.63,335.58l-.24-.11c-.22,5.84-.46,11.93-.7,18.16v.21l.21,0,.5.11.14-.23.84.44c6.12,1.3,12.43,3,18.88,4.6l3.09.78,3.31,3.63c.57.63,1.13,1.25,1.7,1.86l.39-.11h0l-5.28-5.6L288,354.29l5.22,1c-2.7-.67-5.36-1.29-8-1.82.27-6.92.52-13.7.76-20.12l32.57-1.86h0l-.47-.23.48-.21.32-.14c0-3.9,0-7.69,0-11.2v-.11l-.09-.06L307,311.38l-.06,0h-.07L284.93,314l-15.64,0-7.17-5.1,0,0h0l-10.77,0-4.38-2.19-1.12-.55-.38-.18.36.21,1.11.58,4.36,2.26h0l10.75,0,7.15,5.14,0,0h0l15.69,0h0l21.83-2.61,11.6,8c0,3.52,0,7.34,0,11.24l-32.67,1.83-.22,0V333c.15.06.25.1.24.11Z" style="fill:#6f4439"></path><path d="M342.07,444.78a.63.63,0,0,1,.23,0q3.57-3.76,7.5-7.81l.11-.12-.1-.14L334.9,417.82l-8-13.24.06,0-.14,0-.16,0,.7,1.22-.24.06,7.46,12.24h0l14.85,18.77q-4.74,4.92-9,9.41c-1.42,1.52-2.8,3-4.11,4.44l-1.92,2.16-.91,1.08c-.14.19-.29.37-.42.56a3.19,3.19,0,0,0-.2.33,3.32,3.32,0,0,1-.11.32,16,16,0,0,1-1.61,2.1l-1.72,1.93c-1.13,1.26-2.24,2.46-3.27,3.64-.25.29-.5.59-.74.89a4.26,4.26,0,0,0-.34.49.48.48,0,0,0-.08.34.88.88,0,0,0,.1.3,7.69,7.69,0,0,0,1.44,1.69c1,1,2.09,1.83,3.1,2.61h.05l11.93,2.51,3.06.63,1.05.19-1-.25-3.06-.68L329.77,469c-1-.78-2-1.63-3-2.6a7.36,7.36,0,0,1-1.38-1.62c-.07-.17-.14-.28,0-.42a3.58,3.58,0,0,1,.31-.44c.24-.29.48-.59.74-.88,1-1.17,2.14-2.36,3.28-3.61l1.74-1.94a16,16,0,0,0,1.66-2.16,3.48,3.48,0,0,1,.12-.34,2.05,2.05,0,0,1,.16-.26q.19-.27.42-.54c.29-.36.59-.72.9-1.07l1.92-2.15,3-3.24h-.24Z" style="fill:#6f4439"></path><path d="M225.28,382l-4.87,3L204,395.17l-.24.15h0l.37.05,21.53-13.57-.14.19,1.12-.75.22-.16a1.06,1.06,0,0,0,.21-.17,1.13,1.13,0,0,0-.27.13l-.21.12Z" style="fill:#6f4439"></path><path d="M234.32,414.22l-.11-.06-1.18-.51-4.44-1.85-15.3-6.2-5.76-6.69c-.41-.47-.81-.94-1.22-1.4l-.21.13-.31,0,1.36,1.58L213,406l0,0,.06,0,15.42,6.06L233,413.8l1.21.44.08,0a1.36,1.36,0,0,0,.34.09A1.13,1.13,0,0,0,234.32,414.22Z" style="fill:#6f4439"></path><path d="M253.68,354.82l27.49,5.9,1.69-2.69,1.16-2c.29-.53.53-.94.7-1.26a2,2,0,0,0,.22-.44,2.64,2.64,0,0,0-.28.41l-.76,1.23-2.79,4.65-28.33-6.18,1,.68,2.25.47Z" style="fill:#6f4439"></path><path d="M251.19,354.05h0l-14.56,1-11.54.8h-.21l-.25.12a24.81,24.81,0,0,0-3,1.74c-1,.66-2,1.33-3,2-1.93,1.33-3.76,2.64-5.5,3.9l-18.72,5.3-5.26,1.52-1.38.42-.2.06-.27.1,25.93-7.2,6.22-4.08c.8-.54,1.61-1.09,2.44-1.62l.42-.26,2.7-1.77-.57.54.48-.23.15-.07.33,0,.39,0,0-.15,25.49-1.84-3.12.46,3.11-.22,1.5.32-.53-.38-.14-.1,0-.14-.82-.17Z" style="fill:#6f4439"></path><path d="M222.88,347.54a11.59,11.59,0,0,1,2,.67c.07,0,.1.08.09.1s0-.08-.08-.13a3.16,3.16,0,0,0-.72-.35Z" style="fill:#6f4439"></path><path d="M184.52,339.13l.18,0h0l15.26,3-6.9-1.6L196,341l-10.94-2.23c.06-.39.11-.79.17-1.19-.24.63-.39,1-.39,1.08L186.35,328l.26-1.89L197,323l3.79-1.23,1-.19,2.46-.74L218.77,318l-.77.39.42-.08,1.06-.21.41-.08,13.43-2.6,16.05-1.12h.06l0-.05,1.66-3.36c.18-.36.31-.65.42-.87a1.18,1.18,0,0,0,.12-.3l-.17.28-.46.85-1.72,3.26-16,.94h0l-14,2.63-.4.07-.56.11-17.65,3.45h0l-7,2.27-7.09,2.3h0l-.15.05,0,.15,0,.13c-.62,4.38-1.21,8.59-1.78,12.57l0,.13Z" style="fill:#6f4439"></path><path d="M117,354.28h0s0,0-.06-.06l-.11-.11h0l-.07.07v.09c-.1,1.56-.2,3.15-.3,4.76s-.22,3.48-.33,5.26l-.12,2,0,.28h.39l25.85-1.05h.07l18.48-7.15,5.16-2,1.35-.55.24-.1.22-.11a.72.72,0,0,0-.26.07l-.22.07-1.38.5-5.2,1.92-18.51,7-25.66,1c0-.57.07-1.16.11-1.76.21-3.39.41-6.71.61-9.93l6.7-6.85a4.36,4.36,0,0,0-.72.4l4.58-4.67,29.88.63-.33,0h-.22l-1.61-.07-6.09-.19-21.48-.55h-.24l-.07.07-.06.06L116.86,354a.67.67,0,0,1,.1.24Z" style="fill:#6f4439"></path><path d="M180.21,388.81h-.28l-.4.06c-.45,0-1.11.12-2,.17-1.71.14-4.18.3-7.25.5l-5.63.33-23.12,1.62-26.3-12.39h0a1.05,1.05,0,0,0,.23.14l.27.14,1.48.75,5.52,2.68,18.7,8.9,0,0h.07l4.83-.28c9.35-.54,17.81-1.09,23.93-1.57,3.06-.25,5.53-.46,7.24-.66.85-.08,1.52-.19,2-.26l.36-.09a1.12,1.12,0,0,0,.31-.09Z" style="fill:#6f4439"></path><path d="M302.86,419.35c0-.25,10.89-12.93,10.89-12.93l.2,0,.07,0h0q-1.77-5.7-3.64-11.77l0-.1-.1-.05-21.75-9.11,11.37-4.17a6.23,6.23,0,0,1-1.18-.09,8.9,8.9,0,0,1,1.77-.13l.13,0-.48-.27L298,379.47l-15.7-8.74,0,0h-.15l-4.34,0-4.34,0H265.2L262.05,361l0-.08-.06,0-8.23-5.83-1-.68-.26-.19L257,343.4,267.86,336l.1-.07,0-.12-2-8.36-.31-.09h-.05c.62,2.61,1.28,5.44,2,8.43L256.7,343.1l-.05,0,0,.05-4.58,11v0l0,.14.14.1.53.38,9,6.39.86,2.68-.67-2.82L265,371h17.33l12.95,7.21-1.14-.34,3.63,2,1.61.89-11.67,4.28-.59.22.23.09a2.55,2.55,0,0,1,.45-.08l16.37,6.85-1.44-.34,7.22,3c1.23,4,2.42,7.82,3.58,11.55l-10.84,12.83-.07.08,0,.09c1.35,7.13,2.57,13.61,3.66,19.36l-8.15,2.85,6.57-2.13-1.23.59,3.05-1,.11,0c-.1-.06-.17-.11-.16-.12s.08,0,.18,0l0-.08c-.84-4.54-1.76-9.54-2.76-14.95l-.16.2Z" style="fill:#6f4439"></path><path d="M239.06,332.76l.26-.05,1.35-.32,5.24-1.25,19.45-4.72.12.51c.07-.18.13-.36.2-.55l-.05-.19,0-.16-.16,0L245.87,331l-5.22,1.33-1.34.35-.26.08-.2.06Z" style="fill:#6f4439"></path><path d="M255.2,406.86s.05,0,.15.05l.05,0,29.54,5-1.35-.09.36.07a5,5,0,0,1,1.06.32l1.05.49,2,.93,7,3.23,4.76,2.13,1.3.56a1.62,1.62,0,0,0,.47.16s-.14-.1-.43-.25l-1.26-.65-4.68-2.27-7-3.31-2-.95-1-.49a5,5,0,0,0-1.18-.37c-1.56-.35-3.17-.63-4.83-.92-6.62-1.14-12.63-2-17-2.68l-5.16-.72-1.41-.16-.24,0A.69.69,0,0,0,255.2,406.86Z" style="fill:#6f4439"></path><path d="M252.16,395.21c-.14,0-.24.08-.23.09l.22,0,4.78-1.33-3.6.92C252.77,395,252.39,395.13,252.16,395.21Z" style="fill:#6f4439"></path><path d="M282.54,386.72c-1.65.47-3.61,1-5.79,1.69l11.07-3.1a2.55,2.55,0,0,0-.45.08l-1,.25Z" style="fill:#6f4439"></path><path d="M265.46,327l-.09.24.2.06h.05l.31.09,3.46,1-2.05-.88,18.38,5.51s-.09,0-.24-.11l-1-.36-3.42-1.1c-2.89-.92-6.89-2.15-11.32-3.47L266,326.93c1.15-3.32,2.14-6.21,2.83-8.28.32-1,.59-1.83.81-2.5a3.65,3.65,0,0,0,.23-.92,4.7,4.7,0,0,0-.39.86c-.25.66-.57,1.48-.94,2.46-.74,2-1.73,4.69-2.86,7.83-.07.19-.13.37-.2.55Z" style="fill:#6f4439"></path><path d="M306.67,439c1,.61,6.66,3.55,13.62,7,7.67,3.81,13.93,6.81,14,6.68s-6.1-3.31-13.77-7.13c-7-3.47-12.79-6.25-13.82-6.63-.1,0-.17-.06-.18,0S306.57,438.91,306.67,439Z" style="fill:#6f4439"></path><path d="M388.45,432.85l-8.37-14.54-.05-.08-.09,0-.11,0c0,.17.05.27,0,.28s-.07-.11-.14-.32l-2.11-.75-25.09-9h0L327.3,404.3l-.5-.08h-.05l-.23,0-9.32,1.55-2.53.44-.65.12h0l-.07,0,12.6-2,.07.13.16,0,.14,0,25.46,4.29,25.07,9,2.24.8L388,433.09l-6.51,21.82.18.08a.58.58,0,0,1-.2,0l0,.11.13.07,9.18,5.22c0,4,0,7.21.06,9.43,0,1.08,0,1.93,0,2.53l0,.65c0,.14,0,.22,0,.22a.57.57,0,0,0,0-.22l0-.65c0-.6,0-1.45,0-2.53,0-2.23,0-5.45.07-9.52v-.08l-.07-.05c-2.63-1.51-5.67-3.28-9.08-5.25,1.91-6.3,4.14-13.67,6.6-21.77l0-.1-.06-.09v0l-.19.15S388.35,433,388.45,432.85Z" style="fill:#6f4439"></path><path d="M441.1,447.68q2.81-10.32,6.33-23.25l0-.13-.11-.07-17.48-12.48q0-5.13,0-10.5l-.18,0-.09,0-.07-.06-.63-.56c-10.69-2.69-22.08-5.54-34.06-8.35-3.07-.72-6.17-1.44-9.35-2.05a12.13,12.13,0,0,0-1.23-.18c-.44-.06-.76-.09-1.16-.17-.78-.17-1.56-.4-2.33-.64-1.55-.48-3.1-1-4.65-1.54-5.92-2.09-11.89-4.37-17.93-6.72-.32,0-.73,0-1.23.05l.18.08c6.35,2.47,12.61,4.87,18.82,7,1.55.54,3.1,1.07,4.67,1.55.54.17,1.1.32,1.65.47.09-.13.15-.21.16-.2a.7.7,0,0,1-.07.22l.63.16c.39.09.88.12,1.24.17s.76.09,1.16.18c3.15.6,6.26,1.32,9.33,2,12.22,2.86,23.83,5.76,34.7,8.47q0,5.43,0,10.6V412l.09.06,3.26,2.32a1.43,1.43,0,0,1,.38,0s-.1,0-.28.06l14.12,10q-3.48,12.93-6.26,23.23v0h.16l0,.18,2.13,2,.22-.19Z" style="fill:#6f4439"></path><path d="M429.76,400.89h0Z" style="fill:#6f4439"></path><path d="M334.08,324.29l.17,0,22.81,4.84c0,2.29,0,4.81,0,7.39v.17l.17,0,2.26.36a2.23,2.23,0,0,0,.34-.13s0,0,0,0,0,0,0,0-.08.08-.23.15l39.7,6.34,5.44,10.67-31.38,10.93-.2.06,0,.21c.44,3,.9,6.15,1.38,9.36L369,376.63l-11.81,4.06-.64.22.11,0H358l11.16-3.84,5.77-2,.2-.06,0-.21c-.47-3.21-.94-6.39-1.38-9.36l31.44-11,.27-.09-.11-.2c-.14,0-.22.08-.23.06s.05-.08.17-.18c-1.93-3.78-3.84-7.51-5.59-10.95l0-.1c-.08.14-.14.22-.16.21s0-.09.05-.23h0l-42-6.66c0-2.57,0-5.09,0-7.37v-.16l-.15,0-22.6-4.74,14.16-9.75,22.46-.06h.07v0c-.05,0-.07,0-.07,0h.07c0-2.83,0-5,0-6.47,0-.72,0-1.28,0-1.66s0-.56,0-.56,0,.19,0,.56,0,.94,0,1.66c0,1.46,0,3.61,0,6.41l-22.42-.06h0l0,0L334.19,324l-.33.22.09,0a1.2,1.2,0,0,1,.33-.1S334.21,324.22,334.08,324.29Z" style="fill:#6f4439"></path><path d="M340.6,357.45l.46-.06c.44-5.41.84-10.36,1.19-14.64,5.44-1.67,9.85-3.06,12.9-4.06,2.3-.75,3.86-1.29,4.44-1.55.15-.07.22-.12.23-.15a2.23,2.23,0,0,1-.34.13l-.84.28-3.55,1.1L342,342.43l-.12,0v0c.1.06.18.11.17.12l-.18-.06v0C341.51,346.92,341.08,352,340.6,357.45Z" style="fill:#6f4439"></path><path d="M359.83,337s0,0,0,0S359.84,337,359.83,337Z" style="fill:#6f4439"></path><path d="M359,380.92l-.54,0h-1.81l-5.77,0-21.22-.3h0l-15.32-15.28h0l4.58-1.22,22-5.92.15,0,0-.16,0-.44-.47.14v.1l-6.81,1.82L314,365.2l-.23-.24h0l-.39.11h0l.31.31,1.29,1.28L329.36,381l.07.06h.67c8.55.1,15.72.14,20.77.12,2.58,0,4.61,0,6-.08H357c.5,0,.91,0,1.23-.05l.24,0A3.83,3.83,0,0,0,359,380.92Z" style="fill:#6f4439"></path><path d="M318,331.22l.47.23h0l4,1.93c5.38,2.61,10.26,4.94,13.8,6.61L340.5,342c.69.32,1.16.52,1.39.6l.18.06s-.07-.06-.17-.12-.66-.37-1.32-.71l-4.13-2.1c-3.51-1.74-8.36-4.13-13.74-6.73l-3.53-1.71,10.69-4.91,3.26-1.55.95-.49c.13-.07.21-.12.2-.13a1.2,1.2,0,0,0-.33.1l-.89.36L329.74,326l-10.91,4.83-.32.14Z" style="fill:#6f4439"></path><path d="M380.34,393.66c-1.26,2.29-3,5.47-4.86,9l-.05.09,0,.09c.07.26.14.55.22.83,1.08,4.09,2.1,7.78,2.85,10.45l.93,3.15c.11.35.19.63.26.82s.12.32.14.32,0-.11,0-.28-.09-.5-.19-.91c-.2-.86-.46-1.92-.76-3.19-.67-2.69-1.63-6.4-2.72-10.49-.07-.25-.13-.5-.2-.73,1.87-3.54,3.51-6.71,4.68-9l1.38-2.75c.18-.38.3-.65.37-.82a.7.7,0,0,0,.07-.22s-.07.07-.16.2l-.45.75C381.45,391.7,380.94,392.6,380.34,393.66Z" style="fill:#6f4439"></path><path d="M432.81,414.35h-.15l-1.52,0-5.56.29-18.35,1.14-2.42.16h-.1l-.06.06-11.69,12-3.45,3.62-.92,1-.14.16c-.1.12-.16.2-.15.21l.19-.15.17-.16,1-.93,3.56-3.51,11.73-11.83,2.33-.15L425.6,415l5.55-.45,1.51-.14.25,0c.18,0,.28,0,.28-.06A1.43,1.43,0,0,0,432.81,414.35Z" style="fill:#6f4439"></path><path d="M401.4,442.12l21.2,8,18.32-2.38h-.34l-1,.09-3.77.43-13.18,1.62L410,445.1l-8.54-3.2-.12,0-.1.07-13.53,9.31-3.9,2.73-1,.75a1.7,1.7,0,0,0-.34.28,1.85,1.85,0,0,0,.39-.21l1.07-.69.49-.32-.35.13Z" style="fill:#6f4439"></path><path d="M381.71,455l-.18-.08-1.35-.42L376,453.33c-3.57-1-8.52-2.27-14-3.68s-10.43-2.66-14-3.54l-4.27-1c-.66-.15-1.11-.24-1.35-.28a.63.63,0,0,0-.23,0l38.85,10,.21.12.38.07A.58.58,0,0,0,381.71,455Z" style="fill:#6f4439"></path><path d="M301.72,381.07h25a14.63,14.63,0,0,0,2.3-.15c0-.13-6.79-.21-15.17-.17-5.8,0-10.84.1-13.39.19a8.9,8.9,0,0,0-1.77.13,6.23,6.23,0,0,0,1.18.09l2.25,0A2,2,0,0,1,301.72,381.07Z" style="fill:#6f4439"></path><path d="M89.26,408.11l-.2,0L68,404.75h-.06l-2.82.31.85.34,2-.21,20.83,3.34v.89l.25-1.1v3.39l.24,0v-3.64Z" style="fill:#6f4439"></path><path d="M84.47,387.16a1,1,0,0,0-.35-.09c-1.41-.25-7.05-.91-13.81-1.59-7-.7-12.73-1.2-14-1.2-.15,0-.24,0-.24,0s.09,0,.24.07c1.23.24,7,.91,13.91,1.61,6.52.66,12,1.13,13.67,1.19A1.65,1.65,0,0,0,84.47,387.16Z" style="fill:#6f4439"></path><path d="M80.69,330.13l8.06,10.78,21.61,2.36,6.6,11a.67.67,0,0,0-.1-.24c-.07-.14-.18-.33-.32-.59l-1.29-2.27-4.7-8-.06-.1h-.11l-11.11-1.24-10.4-1.11L83,333l-1.7-2.17-.42-.51C80.78,330.2,80.7,330.12,80.69,330.13Z" style="fill:#6f4439"></path><path d="M117,354.28h0l-.06-.06S117,354.29,117,354.28Z" style="fill:#6f4439"></path><path d="M397,317.75h0v0l0,0,9.8,9.13q.07-.15.15-.27l-9.79-9-1.61-8.07c-.19-.91-.33-1.61-.44-2.1s-.16-.71-.16-.71,0,.25.11.72.22,1.2.38,2.11c.35,1.86.86,4.57,1.51,8.05l.12.05S397.08,317.75,397,317.75Z" style="fill:#6f4439"></path><path d="M416.87,347.49v0l.16,0h0v-.21S417,347.4,416.87,347.49Z" style="fill:#6f4439"></path><path d="M423,330.32l-8.68,9.15-.09.09,0,.12,2.53,7.69c.12-.05.2-.07.21-.05l12.72,1,11.16,6.23-.25-.41.22-.13-11-5.89-.05,0h-.05l-12.57-1c-.86-2.59-1.69-5.11-2.47-7.44l8.81-9.33.23-.25-.33-.07-16.3-3.28c0,.09-.07.19-.11.29Z" style="fill:#6f4439"></path><path d="M440.76,362.15l-.08-.08v.73l.13.07,16.07,8.31c.21,1.44.42,3,.64,4.54q.81,5.88,1.61,11.61l-22.55-4.18H417.24v.23c0,2.35,0,4.66,0,6.92v.09l.07.07,11.6,10.21.63.56.07.06.09,0,.18,0,19.87-3.46,13.18,8.12,3.52,2.14.91.54.32.18-.3-.21-.89-.58-3.48-2.2-13.16-8.26-.05,0h-.05l-20,3.39h0l-12-10.67c0-2.15,0-4.36,0-6.6h18.83l22.86,4.26.34.07-.05-.35q-.81-5.88-1.66-12c-.22-1.6-.44-3.19-.65-4.66l0-.13-.11-.06-16.06-8.29c0-2.61,0-5.17,0-7.58l-.24-.39Z" style="fill:#6f4439"></path><path d="M49,337.14s.09,0,.22.09v-.07c.51-5.59,1-10.89,1.43-15.69l14.84-7.78,0,0c-.07-.06-.12-.11-.11-.13s.12,0,.27,0l.18-.1-.41-.1-8.29-2.18-.25.2,8,2.18-14.6,7.56-.1.06v.11c-.45,4.79-.94,10.06-1.47,15.63l-12.65,3.12c-.07.18-.13.36-.19.54l13.11-3.25.12,0C49.09,337.22,49,337.15,49,337.14Z" style="fill:#6f4439"></path><path d="M40.9,371.13l0,0,0-.16q-1.83-5.82-3.78-12l0-.12-.12,0-4.44-1.46c0,.17,0,.34,0,.51l4.18,1.38q1.9,6,3.7,11.72l-5.86,4.5.15.46,6.13-4.68c-.09-.1-.16-.17-.14-.19S40.76,371.05,40.9,371.13Z" style="fill:#6f4439"></path><path d="M403.14,334.64c-1.88,4.07-3.36,7.51-3.65,8.4-.05.14-.07.22-.05.23s.08-.07.16-.21c.5-.83,2.13-4.17,4-8.21,1.59-3.45,2.9-6.44,3.44-7.82,0-.1.08-.2.11-.29.12-.31.18-.5.15-.51s-.13.15-.29.44q-.08.12-.15.27C406.15,328.24,404.73,331.19,403.14,334.64Z" style="fill:#6f4439"></path><path d="M371.39,314.23c.69.22,6.14,1.07,12.79,2s12.06,1.56,12.83,1.54c.07,0,.11,0,.11,0l-.12-.05c-.8-.23-6.19-1.07-12.75-2s-12.16-1.57-12.86-1.54h-.07S371.34,314.22,371.39,314.23Z" style="fill:#6f4439"></path><path d="M416.87,347.49c.12-.09.18-.15.17-.17s-.09,0-.21.05c-.7.28-3.09,1.58-5.9,3.22s-5.05,3-5.69,3.52c-.12.1-.19.16-.17.18s.09,0,.23-.06c.73-.31,3.1-1.59,5.88-3.21S416.24,348,416.87,347.49Z" style="fill:#6f4439"></path><path d="M440.92,354.54h0l.24.39v0l13-8.2.16-.1c0-.21,0-.42,0-.64l-.65-1c0,.42,0,.84,0,1.27L440.89,354l-.22.13Z" style="fill:#6f4439"></path><path d="M83.47,388.25a17.88,17.88,0,0,0,3.18,2.28c1.48.89,3,1.73,4.55,2.56L83.42,388l-.07,0A.8.8,0,0,0,83.47,388.25Z" style="opacity:0.1"></path><path d="M128.46,410.4l0,0L124.56,407l-5.08-4.08H101.83l-.07-.07-.24-.23-8.07-7.72c-2.4-1.24-4.76-2.52-7-3.9a28.73,28.73,0,0,1-2.48-1.64l3.12,6,6,2.34,7.89,9.22H119l7.32,7.5,2.15.67c3.92.12,7.78.21,11.56.31l-11.51-4.93Z" style="opacity:0.1"></path><path d="M83.91,389.28v0A28.73,28.73,0,0,0,86.4,391c2.29,1.38,4.65,2.66,7,3.9l8.07,7.72.24.23.07.07h17.65l-.3-.25H101.93l-8.33-8-2.4-1.56c-1.54-.83-3.07-1.67-4.55-2.56a17.88,17.88,0,0,1-3.18-2.28.8.8,0,0,1-.12-.18l.07,0-.24-.15Z" style="fill:#6f4439"></path><path d="M83.91,389.28v0A28.73,28.73,0,0,0,86.4,391c2.29,1.38,4.65,2.66,7,3.9l8.07,7.72.24.23.07.07h17.65l-.3-.25H101.93l-8.33-8-2.4-1.56c-1.54-.83-3.07-1.67-4.55-2.56a17.88,17.88,0,0,1-3.18-2.28.8.8,0,0,1-.12-.18l.07,0-.24-.15Z" style="opacity:0.1"></path><path d="M124.56,407l3.87,3.42,0,0h0L140,415.34l.65,0-12.07-5.17Z" style="fill:#6f4439"></path><path d="M124.56,407l3.87,3.42,0,0h0L140,415.34l.65,0-12.07-5.17Z" style="opacity:0.1"></path><path d="M178.69,385.42l-.05.06h-.07l-27.94,2.8-7.92.77h-.07l-.06,0-19.36-9.79-5.67-2.92-1.51-.81-.29-.16c-.08,1.25-.17,2.51-.26,3.78v.06l.31.13,1.52.67,5.58,2.55,18.71,8.72,4.77-.27,18.3-1.1,15.25-1.06,0-.11q2-5.16,4-10.17l-2.18,2.72C180.92,382.44,179.88,383.83,178.69,385.42Z" style="opacity:0.1"></path><path d="M179.93,388.83h.28l4.3-10.91-.52.65q-2,5-4,10.17Z" style="fill:#6f4439"></path><path d="M179.93,388.83h.28l4.3-10.91-.52.65q-2,5-4,10.17Z" style="opacity:0.1"></path><path d="M141.61,391.26l-18.71-8.72L117.32,380l-1.52-.67-.31-.13v-.06c.09-1.27.18-2.53.26-3.78a1.13,1.13,0,0,1-.22-.14h0l-.27,3.91h0l26.3,12.39,23.12-1.62-18.3,1.1Z" style="fill:#6f4439"></path><path d="M141.61,391.26l-18.71-8.72L117.32,380l-1.52-.67-.31-.13v-.06c.09-1.27.18-2.53.26-3.78a1.13,1.13,0,0,1-.22-.14h0l-.27,3.91h0l26.3,12.39,23.12-1.62-18.3,1.1Z" style="opacity:0.1"></path><path d="M224.36,356.63c-.73.36-1.44.8-2.13,1.23l-2.86,1.88-.55.36c-1.95,1.33-3.8,2.64-5.55,3.9l0,0h0l-18.8,5.13-5.29,1.41-1.4.35-.2.05-.06.14c-.28.74-.58,1.49-.87,2.23l26.57-6.09Z" style="opacity:0.1"></path><path d="M169.52,357.31l16.57,15.91.84-2.12Z" style="opacity:0.1"></path><path d="M187.51,371l.2-.05,1.4-.35,5.29-1.41L213.2,364h0l0,0c1.75-1.26,3.6-2.57,5.55-3.9l.55-.36-6.22,4.08L187.22,371l-19.51-15.45,1.81,1.74,17.41,13.79-.84,2.12.19.19.3-.07c.29-.74.59-1.49.87-2.23Z" style="fill:#6f4439"></path><path d="M187.51,371l.2-.05,1.4-.35,5.29-1.41L213.2,364h0l0,0c1.75-1.26,3.6-2.57,5.55-3.9l.55-.36-6.22,4.08L187.22,371l-19.51-15.45,1.81,1.74,17.41,13.79-.84,2.12.19.19.3-.07c.29-.74.59-1.49.87-2.23Z" style="opacity:0.1"></path><path d="M224.93,356.09l-2.7,1.77c.69-.43,1.4-.87,2.13-1.23Z" style="fill:#6f4439"></path><path d="M224.93,356.09l-2.7,1.77c.69-.43,1.4-.87,2.13-1.23Z" style="opacity:0.1"></path><path d="M225.54,382l-.16.11-4.8,3.11-16.06,10.22c.59.67,1.19,1.36,1.79,2.07l14.86-9.87Z" style="opacity:0.1"></path><path d="M203.78,395.33l-7-.93,2.91,3.52,6.14-.26L204,395.54Z" style="opacity:0.1"></path><path d="M196.37,394.35l.79.95,2.18,2.64.31,0-2.91-3.52Z" style="fill:#6f4439"></path><path d="M196.37,394.35l.79.95,2.18,2.64.31,0-2.91-3.52Z" style="opacity:0.1"></path><path d="M206.31,397.51c-.6-.71-1.2-1.4-1.79-2.07l16.06-10.22,4.8-3.11.16-.11.14-.19-21.53,13.57-.37-.05.18.21,1.83,2.12.31,0Z" style="fill:#6f4439"></path><path d="M206.31,397.51c-.6-.71-1.2-1.4-1.79-2.07l16.06-10.22,4.8-3.11.16-.11.14-.19-21.53,13.57-.37-.05.18.21,1.83,2.12.31,0Z" style="opacity:0.1"></path><path d="M88.29,411.58l.48.08v-2.24Z" style="opacity:0.1"></path><path d="M88.77,409.42v2.24l.25,0v-3.39Z" style="fill:#6f4439"></path><path d="M88.77,409.42v2.24l.25,0v-3.39Z" style="opacity:0.1"></path><path d="M262.2,408.12l-5.13-.87-1.39-.26-.21-.05,0,.08-.21.07L235,414.48q1.2,1.88,2.38,3.71l18.81-8.28,27.44,1.86c-1.43-.3-2.91-.56-4.43-.83Z" style="opacity:0.1"></path><path d="M255.4,406.89l-.05,0-20.55,7.45,2.33,3.92.21-.09q-1.18-1.83-2.38-3.71l20.32-7.39.21-.07,0-.08.21.05,1.39.26,5.13.87,17,2.82c1.52.27,3,.53,4.43.83l1.35.09Z" style="fill:#6f4439"></path><path d="M255.4,406.89l-.05,0-20.55,7.45,2.33,3.92.21-.09q-1.18-1.83-2.38-3.71l20.32-7.39.21-.07,0-.08.21.05,1.39.26,5.13.87,17,2.82c1.52.27,3,.53,4.43.83l1.35.09Z" style="opacity:0.1"></path><path d="M279.12,448.4l-1.51.5-.33.1,0,0a.67.67,0,0,1,.08.18,2.76,2.76,0,0,1,.07.63,11.21,11.21,0,0,1,0,1.17c0,.55-.11,1.08-.17,1.62l.08,0,26.19-12.61-18.58,6.38Z" style="opacity:0.1"></path><path d="M276.79,448.85l.27,0,.13,0,.07.06.34-.13,1.49-.54,5.78-2.05,13.3-4.67-20.85,6.78-8.26-1.44.07.05,5.29,1.33C275.22,448.5,276,448.7,276.79,448.85Z" style="opacity:0.1"></path><path d="M277.17,449.83a2.87,2.87,0,0,0-.06-.54.26.26,0,0,0,0-.09h0l-.32-.05c-.8-.16-1.58-.35-2.4-.54-1.47-.35-3-.74-4.6-1.13,1.09.89,2.18,1.77,3.28,2.64l4,2.34c.06-.49.12-1,.16-1.48S277.17,450.21,277.17,449.83Z" style="opacity:0.1"></path><path d="M298.17,441.59l-13.3,4.67-5.78,2.05-1.49.54-.34.13-.07-.06-.13,0-.27,0c-.77-.15-1.57-.35-2.37-.54L269.13,447l.61.5c1.58.39,3.13.78,4.6,1.13.82.19,1.6.38,2.4.54l.32.05h0a.26.26,0,0,1,0,.09,2.87,2.87,0,0,1,.06.54c0,.38,0,.77,0,1.15s-.1,1-.16,1.48l.27.16c.06-.54.13-1.07.17-1.62a11.21,11.21,0,0,0,0-1.17,2.76,2.76,0,0,0-.07-.63.67.67,0,0,0-.08-.18l0,0,.33-.1,1.51-.5,5.81-2,18.58-6.38,1.23-.59Z" style="fill:#6f4439"></path><path d="M298.17,441.59l-13.3,4.67-5.78,2.05-1.49.54-.34.13-.07-.06-.13,0-.27,0c-.77-.15-1.57-.35-2.37-.54L269.13,447l.61.5c1.58.39,3.13.78,4.6,1.13.82.19,1.6.38,2.4.54l.32.05h0a.26.26,0,0,1,0,.09,2.87,2.87,0,0,1,.06.54c0,.38,0,.77,0,1.15s-.1,1-.16,1.48l.27.16c.06-.54.13-1.07.17-1.62a11.21,11.21,0,0,0,0-1.17,2.76,2.76,0,0,0-.07-.63.67.67,0,0,0-.08-.18l0,0,.33-.1,1.51-.5,5.81-2,18.58-6.38,1.23-.59Z" style="opacity:0.1"></path><path d="M257.2,393.88l5.75-1.41c.54-.13,1.1-.24,1.66-.41l1.71-.52,3.59-1.09,6.84-2L256.93,394Z" style="opacity:0.1"></path><path d="M287.51,385.45c-.23.09-.58.22-1.07.38l-3.8,1.23c-3.21,1-7.67,2.39-12.6,3.87l-3.6,1.08-1.71.51c-.56.16-1.12.27-1.66.4l-5.79,1.3-3.9.84c-.57.11-1,.19-1.2.22.17.59.33,1.18.5,1.77l34.54-8.94,15.53,3.71-15-6.28Z" style="opacity:0.1"></path><path d="M287.82,385.31l-11.07,3.1-6.84,2-3.59,1.09-1.71.52c-.56.17-1.12.28-1.66.41l-5.75,1.41-.27.07-4.78,1.33-.05,0,.34,1.81.24-.06c-.17-.59-.33-1.18-.5-1.77.24,0,.63-.11,1.2-.22l3.9-.84,5.79-1.3c.54-.13,1.1-.24,1.66-.4l1.71-.51,3.6-1.08c4.93-1.48,9.39-2.86,12.6-3.87l3.8-1.23c.49-.16.84-.29,1.07-.38l.21.09,15,6.28,1.44.34Z" style="fill:#6f4439"></path><path d="M287.82,385.31l-11.07,3.1-6.84,2-3.59,1.09-1.71.52c-.56.17-1.12.28-1.66.41l-5.75,1.41-.27.07-4.78,1.33-.05,0,.34,1.81.24-.06c-.17-.59-.33-1.18-.5-1.77.24,0,.63-.11,1.2-.22l3.9-.84,5.79-1.3c.54-.13,1.1-.24,1.66-.4l1.71-.51,3.6-1.08c4.93-1.48,9.39-2.86,12.6-3.87l3.8-1.23c.49-.16.84-.29,1.07-.38l.21.09,15,6.28,1.44.34Z" style="opacity:0.1"></path><path d="M178.46,385.15l-27.87,2.64-7.86.77L123.36,379l-5.73-2.79-1.55-.72-.33-.15a.67.67,0,0,0-.22-.08h0a1.13,1.13,0,0,0,.22.14l.29.16,1.51.81,5.67,2.92L142.58,389l.06,0h.07l7.92-.77,27.94-2.8h.07l.05-.06c1.19-1.59,2.23-3,3.12-4.15l1.4-1.87c.39-.53.7-.95,1-1.32l.24-.31a6,6,0,0,0,.39-.59,3,3,0,0,0-.47.53l0,0-1.25,1.56Z" style="fill:#6f4439"></path><path d="M50.13,378.52c-.5-.53-2.3-2.07-4.51-3.84s-4.08-3.17-4.72-3.55c-.14-.08-.24-.13-.25-.11s.05.09.14.19c.48.52,2.29,2.07,4.52,3.85s4.08,3.17,4.72,3.55c.13.08.23.13.24.11S50.22,378.62,50.13,378.52Z" style="fill:#6f4439"></path><path d="M64.68,348.65c-.73-.68-3.82-3.07-7.59-5.86s-7-5.07-7.83-5.56c-.13-.07-.21-.11-.22-.09s.05.08.17.19c.73.68,3.82,3.08,7.59,5.86s6.94,5,7.81,5.55c.15.08.23.12.24.11S64.8,348.76,64.68,348.65Z" style="fill:#6f4439"></path><path d="M65.45,313.54s0,.07.11.13a30.68,30.68,0,0,0,3.65,2,32.91,32.91,0,0,0,3.72,1.65c.14.05.24.07.26,0s-.08-.1-.22-.21a37.27,37.27,0,0,0-3.54-1.93,31.45,31.45,0,0,0-3.71-1.65C65.57,313.54,65.46,313.52,65.45,313.54Z" style="fill:#6f4439"></path><path d="M109.71,346.74l7.08,7.37,0,0c-.09-.12-.22-.32-.38-.57-.36-.57-.83-1.3-1.4-2.21l-4.8-7.83-11-1.17-10.49-1.17-.1,0-.05-.07c-2.33-3.19-4.31-5.88-5.76-7.85-.65-.92-1.18-1.67-1.6-2.25l-.3-.45v3.68l7.25,10.53Z" style="opacity:0.1"></path><path d="M81.21,331c.42.58,1,1.33,1.6,2.25,1.45,2,3.43,4.66,5.76,7.85l.05.07.1,0,10.49,1.17,11,1.17,4.8,7.83c.57.91,1,1.64,1.4,2.21.16.25.29.45.38.57l0,0,.11.11.06.06h0l-6.6-11-21.61-2.36-8.06-10.78.17,4,0,.07V330.5Z" style="fill:#6f4439"></path><path d="M81.21,331c.42.58,1,1.33,1.6,2.25,1.45,2,3.43,4.66,5.76,7.85l.05.07.1,0,10.49,1.17,11,1.17,4.8,7.83c.57.91,1,1.64,1.4,2.21.16.25.29.45.38.57l0,0,.11.11.06.06h0l-6.6-11-21.61-2.36-8.06-10.78.17,4,0,.07V330.5Z" style="opacity:0.1"></path><path d="M157.64,346.66l5.29,3.73-5.46-6.34-.11-.13h-1.88l-6.1-.07-21.53-.37-3.95,4.05c1.46-.74,4.63-2.16,4.63-2.16Z" style="opacity:0.1"></path><path d="M149.38,343.86l6.1.07h1.88l.11.13,5.46,6.34.79.56-6.08-7.05-29.88-.63-4.58,4.67a4.36,4.36,0,0,1,.72-.4l3.95-4.05Z" style="fill:#6f4439"></path><path d="M149.38,343.86l6.1.07h1.88l.11.13,5.46,6.34.79.56-6.08-7.05-29.88-.63-4.58,4.67a4.36,4.36,0,0,1,.72-.4l3.95-4.05Z" style="opacity:0.1"></path><path d="M210.56,322.1l7.44-3.72-16.25,3.22L197,323l-3.22,1-6.94,2.25c-.56,3.9-1.1,7.67-1.62,11.26,1-2.71,3.71-9.62,3.71-9.62Z" style="opacity:0.1"></path><path d="M193.78,324.06l3.22-1-10.39,3.1-.26,1.89-1.52,10.64s.15-.45.39-1.08c.52-3.59,1.06-7.36,1.62-11.26Z" style="fill:#6f4439"></path><path d="M193.78,324.06l3.22-1-10.39,3.1-.26,1.89-1.52,10.64s.15-.45.39-1.08c.52-3.59,1.06-7.36,1.62-11.26Z" style="opacity:0.1"></path><path d="M218.77,318l-14.56,2.87-2.46.74L218,318.38Z" style="fill:#6f4439"></path><path d="M218.77,318l-14.56,2.87-2.46.74L218,318.38Z" style="opacity:0.1"></path><path d="M236.63,355.54l-10.92.74.16,1,.35.63,21.83-3.18Z" style="opacity:0.1"></path><path d="M226,358l.25,0-.35-.63Z" style="fill:#6f4439"></path><path d="M226,358l.25,0-.35-.63Z" style="opacity:0.1"></path><path d="M248.05,354.75l3.12-.46-25.49,1.84,0,.15,10.92-.74Z" style="fill:#6f4439"></path><path d="M248.05,354.75l3.12-.46-25.49,1.84,0,.15,10.92-.74Z" style="opacity:0.1"></path><path d="M281.28,360.78l0,.08-.09,0L256,355.55l19.19,6.12,8.56,1.4,2.81-8.78-.18-.09-1-.21-2.53,4Z" style="opacity:0.1"></path><path d="M285.53,353.76l-.14.23,1,.21Z" style="fill:#6f4439"></path><path d="M285.53,353.76l-.14.23,1,.21Z" style="opacity:0.1"></path><path d="M281.23,360.86l0-.08,1.58-2.75-1.69,2.69-27.49-5.9,2.31.73,25.15,5.29Z" style="fill:#6f4439"></path><path d="M281.23,360.86l0-.08,1.58-2.75-1.69,2.69-27.49-5.9,2.31.73,25.15,5.29Z" style="opacity:0.1"></path><path d="M281.24,373.94l12.92,3.95-12-6.7a4.35,4.35,0,0,1-.49,0H264.85l-.05-.17c-.79-2.44-1.56-4.85-2.3-7.17l2,8.57Z" style="opacity:0.1"></path><path d="M264.85,371.26h16.81a4.35,4.35,0,0,0,.49,0l12,6.7,1.14.34L282.35,371H265l-3.19-9.92.67,2.82c.74,2.32,1.51,4.73,2.3,7.17Z" style="fill:#6f4439"></path><path d="M264.85,371.26h16.81a4.35,4.35,0,0,0,.49,0l12,6.7,1.14.34L282.35,371H265l-3.19-9.92.67,2.82c.74,2.32,1.51,4.73,2.3,7.17Z" style="opacity:0.1"></path><path d="M308.53,359.12l.08,0,.05.05,3.36,3.68c.62.69,1.25,1.38,1.88,2.05l4.86-1.31,15-4,6.82-1.92a1.79,1.79,0,0,0,0-.23l-26.75,3.65-3.56-2.68-17.11-3.16c4,1,8.06,2,12.19,3.06Z" style="opacity:0.1"></path><path d="M341.06,357.39v.15l1-.29Z" style="opacity:0.1"></path><path d="M340.6,357.45a1.79,1.79,0,0,1,0,.23l.47-.14v-.15Z" style="fill:#6f4439"></path><path d="M340.6,357.45a1.79,1.79,0,0,1,0,.23l.47-.14v-.15Z" style="opacity:0.1"></path><path d="M333.76,359.6l-15,4-4.86,1.31c-.63-.67-1.26-1.36-1.88-2.05l-3.36-3.68-.05-.05-.08,0-3.16-.8c-4.13-1-8.19-2.08-12.19-3.06l-5.22-1,20.51,5.07,5.28,5.6.23.24Z" style="fill:#6f4439"></path><path d="M333.76,359.6l-15,4-4.86,1.31c-.63-.67-1.26-1.36-1.88-2.05l-3.36-3.68-.05-.05-.08,0-3.16-.8c-4.13-1-8.19-2.08-12.19-3.06l-5.22-1,20.51,5.07,5.28,5.6.23.24Z" style="opacity:0.1"></path><path d="M285.48,333.08v0c-.21,0-.55-.12-1.05-.25l-3.46-1c-2.91-.82-6.93-2-11.36-3.33l-.22-.06c4.38,1.9,14.35,6.29,16,7Z" style="opacity:0.1"></path><path d="M281,331.85l3.46,1c.5.13.84.21,1.05.25v0l-.09,2.39.24.11.09-2.49-18.38-5.51,2.05.88.22.06C274,329.85,278.06,331,281,331.85Z" style="fill:#6f4439"></path><path d="M281,331.85l3.46,1c.5.13.84.21,1.05.25v0l-.09,2.39.24.11.09-2.49-18.38-5.51,2.05.88.22.06C274,329.85,278.06,331,281,331.85Z" style="opacity:0.1"></path><path d="M65.1,352.33v12.95l-.08.08L52,377.45l-1.36,1.27,2.13,2,15.1-12.68Z" style="opacity:0.1"></path><path d="M64.61,354.55l-.72,10.6-6.27,6.41,7-6.49Z" style="opacity:0.1"></path><path d="M52.58,380.92l.19-.16-2.13-2L52,377.45l13-12.09.08-.08V352.33L64.85,351l-.24,3.6v10.52l-7,6.49-7,7.16Z" style="fill:#6f4439"></path><path d="M52.58,380.92l.19-.16-2.13-2L52,377.45l13-12.09.08-.08V352.33L64.85,351l-.24,3.6v10.52l-7,6.49-7,7.16Z" style="opacity:0.1"></path><path d="M440.75,447.78h0l-.16,0-1,.17-3.74.55-13.22,1.8h-.06l-.05,0-12.68-4.75-8.41-3.18-13.53,9.09-3.49,2.29,17.38-6.46L422.5,455l17.81-3.84.58-3.24-.07-.07Z" style="opacity:0.1"></path><path d="M440.92,447.73h0l-18.32,2.38-21.2-8L384.06,453.9l.35-.13,3.49-2.29,13.53-9.09,8.41,3.18,12.68,4.75.05,0h.06l13.22-1.8,3.74-.55,1-.17.16,0h0l.07.06.07.07,0-.18Z" style="fill:#6f4439"></path><path d="M440.92,447.73h0l-18.32,2.38-21.2-8L384.06,453.9l.35-.13,3.49-2.29,13.53-9.09,8.41,3.18,12.68,4.75.05,0h.06l13.22-1.8,3.74-.55,1-.17.16,0h0l.07.06.07.07,0-.18Z" style="opacity:0.1"></path><path d="M429.69,348.54l-12.64-1,11.93,3,11.7,11.49v-7.64Z" style="opacity:0.1"></path><path d="M417.05,347.54l12.64,1,11,5.89v7.64l.08.08.16-7.61h0l-11.16-6.23-12.72-1v.21Z" style="fill:#6f4439"></path><path d="M417.05,347.54l12.64,1,11,5.89v7.64l.08.08.16-7.61h0l-11.16-6.23-12.72-1v.21Z" style="opacity:0.1"></path><path d="M375.85,453.66c-3.59-.88-8.56-2.12-14-3.53s-10.41-2.71-14-3.68l-4.22-1.17c-.69-.2-1.14-.34-1.37-.42l-1.55,1.64-1.1,1.18,9.27.11,41.49,12.46-9.22-5.35-1-.22Z" style="opacity:0.1"></path><path d="M342.07,444.78l-2.72,2.9h.24l1.1-1.18,1.55-1.64c.23.08.68.22,1.37.42l4.22,1.17c3.58,1,8.52,2.27,14,3.68s10.44,2.65,14,3.53l4.27,1,1,.22-.21-.12Z" style="fill:#6f4439"></path><path d="M342.07,444.78l-2.72,2.9h.24l1.1-1.18,1.55-1.64c.23.08.68.22,1.37.42l4.22,1.17c3.58,1,8.52,2.27,14,3.68s10.44,2.65,14,3.53l4.27,1,1,.22-.21-.12Z" style="opacity:0.1"></path><path d="M326.33,404.58l-9.1,1.38-2.54.37-.65.08,0,.07-.08.09-10.9,12.83c.28,1.52.56,3,.83,4.47,1.36-1.79,10.91-14.83,10.91-14.83l12.26-3.22-.73-1.19Z" style="opacity:0.1"></path><path d="M326.62,404.54l-.07-.13-12.6,2-.2,0s-10.89,12.68-10.89,12.93l.89,4.72.16-.2c-.27-1.46-.55-2.95-.83-4.47L314,406.57l.08-.09,0-.07.65-.08,2.54-.37,9.1-1.38,0,.05.73,1.19.24-.06Z" style="fill:#6f4439"></path><path d="M326.62,404.54l-.07-.13-12.6,2-.2,0s-10.89,12.68-10.89,12.93l.89,4.72.16-.2c-.27-1.46-.55-2.95-.83-4.47L314,406.57l.08-.09,0-.07.65-.08,2.54-.37,9.1-1.38,0,.05.73,1.19.24-.06Z" style="opacity:0.1"></path><path d="M302.12,381.21a34.32,34.32,0,0,0,8.42,1.19c2.83-.2,17.72-1.33,17.72-1.33h-1.54c-2.68.08-7.43.15-12.86.17C309.13,381.27,304.9,381.25,302.12,381.21Z" style="opacity:0.1"></path><path d="M302.12,381.21c2.78,0,7,.06,11.74,0,5.43,0,10.18-.09,12.86-.17h-25A2,2,0,0,0,302.12,381.21Z" style="fill:#6f4439"></path><path d="M302.12,381.21c2.78,0,7,.06,11.74,0,5.43,0,10.18-.09,12.86-.17h-25A2,2,0,0,0,302.12,381.21Z" style="opacity:0.1"></path><path d="M213.78,345.28c-3.56-.83-7.86-1.79-12.75-2.85l-1-.21,22.88,5.32C221,347,217.88,346.23,213.78,345.28Z" style="opacity:0.1"></path><path d="M213.85,345c5.15,1.25,8.77,2.25,10.28,2.83l.74.17c.17-1.12.33-2.22.48-3.29-2.73-.34-22-2.77-29.36-3.72l5.13,1.05C206,343.13,210.3,344.13,213.85,345Z" style="opacity:0.1"></path><path d="M224.93,348l.75-3.27-.33,0c-.15,1.07-.31,2.17-.48,3.29Z" style="fill:#6f4439"></path><path d="M224.93,348l.75-3.27-.33,0c-.15,1.07-.31,2.17-.48,3.29Z" style="opacity:0.1"></path><path d="M213.78,345.28c4.1,1,7.22,1.72,9.1,2.26l1.25.29c-1.51-.58-5.13-1.58-10.28-2.83-3.55-.87-7.85-1.87-12.73-3L196,341l-2.89-.37,6.9,1.6,1,.21C205.92,343.49,210.22,344.45,213.78,345.28Z" style="fill:#6f4439"></path><path d="M213.78,345.28c4.1,1,7.22,1.72,9.1,2.26l1.25.29c-1.51-.58-5.13-1.58-10.28-2.83-3.55-.87-7.85-1.87-12.73-3L196,341l-2.89-.37,6.9,1.6,1,.21C205.92,343.49,210.22,344.45,213.78,345.28Z" style="opacity:0.1"></path><path d="M53.55,399.11l2.17-5.81c-1.12,1.7-2.24,3.39-3.36,5.05C52.75,398.61,53.15,398.86,53.55,399.11Z" style="opacity:0.1"></path><path d="M52,398.15l.32.2c1.12-1.66,2.24-3.35,3.36-5.05l.39-1Z" style="fill:#6f4439"></path><path d="M52,398.15l.32.2c1.12-1.66,2.24-3.35,3.36-5.05l.39-1Z" style="opacity:0.1"></path><polygon points="233.59 434.7 200.14 424.75 187.87 429.45 177.11 441.04 189.13 458.18 222.07 462.99 238.86 449.73 233.59 434.7" style="fill:#ae7461"></polygon><path d="M174.88,443.87c.45.44,8.77,12.19,8.77,12.19l-13.08,8.77L156.3,454.35l5.5-7.66Z" style="fill:#ae7461"></path><path d="M132.33,435.27c1.19.34,28.89,7.36,28.89,7.36l12.68-2.1,12.71-11.73-4.52-6.67-17.58-1.85-27.15,3.19Z" style="fill:#ae7461"></path><polygon points="177.11 468.65 185.62 462.24 219.56 466.71 215.45 472.83 193.38 476.42 177.11 468.65" style="fill:#ae7461"></polygon><polygon points="228.03 464.83 244.91 452.81 246.56 443.87 268.18 455.9 264.26 467.43 241.23 471.14 228.03 464.83" style="fill:#ae7461"></polygon><polygon points="110.44 423.81 122.33 422.36 129.16 428.68 120.04 435.82 112.73 433.48 110.44 423.81" style="fill:#ae7461"></polygon></g><g id="freepik--Trees--inject-93"><polygon points="221.28 69.81 205.4 93.5 204.26 63.79 201.23 63.79 201.99 96.71 174 121.59 149.41 126 164.54 100.72 170.59 75.43 166.81 75.43 161.13 97.91 154.32 108.75 138.44 81.86 134.27 82.26 150.16 112.36 126.33 146.47 122.92 146.47 90.01 92.69 85.85 93.09 118.38 149.28 94.93 191.03 95.13 201.87 94.3 203.48 91.77 204.37 67.7 170.5 89.27 135.23 84.81 133.99 64.53 167.39 57.62 159.04 53.13 146 50.62 145.94 55.52 160.9 70.11 184.46 44.05 177.57 18.87 154.68 16.36 154.63 44.31 182.53 69.31 188.43 95.67 230.99 96.44 272.1 96.14 304.21 135.13 303.95 130.97 292.14 123.2 283.8 116.49 189.02 148.27 132.94 175.89 125.6 210.69 93.09 224.69 69.81 221.28 69.81" style="fill:#6f4439"></polygon><polygon points="430.43 304.05 428.94 299.04 432.91 252.13 446.5 231.18 465.59 226.51 448.69 227.84 457.16 212.59 456 196.45 465.38 182.18 455.54 193.22 454.14 172.52 453.44 210.57 447.49 207.34 453.14 213.78 429.79 249.18 416.35 232.06 421.51 219.35 414.15 229.71 407.32 224.37 396.09 186.68 399.35 208 391.09 205.83 400.91 212.41 405.06 224.1 386.8 220.84 380.55 209.46 383.59 220.54 360.86 214.95 384.03 224.16 386.15 223.09 403.83 226.91 414.01 234.01 422.69 246.48 405.38 242.87 426.67 252.39 425.89 279.27 421.17 295.64 420.88 304.2 430.43 304.05" style="fill:#6f4439"></polygon></g><g id="freepik--plants-2--inject-93"><polygon points="196.41 445.96 202.58 439.92 211.71 439.03 218.44 443.74 219.56 446.23 196.41 445.96" style="opacity:0.1"></polygon><path d="M218.19,407.88a3.54,3.54,0,0,1,2.72-2,7.91,7.91,0,0,0,2.16.12c1.37-.34,2.05-2.24,3.46-2.28s2.06,1.79,3.26,2.55a11,11,0,0,0,1.91.74,6.06,6.06,0,0,1,3.13,3.28,18.26,18.26,0,0,1,1.13,4.49c-2.78.34-4.88-3.39-7.63-2.91-.68.12-1.34.5-2,.33s-1.17-.91-1.86-1.17a2.82,2.82,0,0,0-2.37.51c-.73.42-1.81,3.1-4.63,2l.18-.32C217,412.26,217.68,408.87,218.19,407.88Z" style="fill:#455a64"></path><path d="M222.67,409c.06.09-1.61,1.29-3.94,3.62A40.94,40.94,0,0,0,215,417a41,41,0,0,0-6.35,12.59,41,41,0,0,0-1.28,5.64c-.5,3.26-.46,5.32-.57,5.32a6.92,6.92,0,0,1-.06-1.45c0-.46,0-1,.05-1.69s.08-1.41.21-2.23a38.17,38.17,0,0,1,1.19-5.73,43.47,43.47,0,0,1,2.62-6.67,42.66,42.66,0,0,1,3.8-6.07,37.51,37.51,0,0,1,3.9-4.36c.58-.59,1.17-1.06,1.67-1.5a16.09,16.09,0,0,1,1.33-1.05A7.44,7.44,0,0,1,222.67,409Z" style="fill:#263238"></path><path d="M218.78,423.75c.84,0,1.18,1.09,1.86,1.57a2.84,2.84,0,0,1,1.44,2c0,.74-.44,1.45-.3,2.18s.74,1.12,1.13,1.69c1.57,2.31-1,5.76.48,8.15a17.77,17.77,0,0,0,3.63-2.88,6.08,6.08,0,0,0,1.71-4.2,10.75,10.75,0,0,1-.12-2c.2-1.41,1.6-2.74,1-4s-2.62-1.11-3.5-2.22a8.21,8.21,0,0,1-.77-2,3.55,3.55,0,0,0-3-1.64c-1.11-.06-3.24.26-3.78,1.23l.16,0C217.82,421.49,215.54,423.89,218.78,423.75Zm4.84,4.1.06,0a1,1,0,0,1,.55,1.94,1,1,0,0,1-.61-1.92Z" style="fill:#455a64"></path><path d="M223.91,424.41c0,.07-.89-.59-2.34-1.45a7.77,7.77,0,0,0-2.73-1,4.53,4.53,0,0,0-3.32.75,24.88,24.88,0,0,0-2.72,2.4l-2.2,2a13.35,13.35,0,0,1-2.12,1.79,14.43,14.43,0,0,1,1.86-2.05l2.12-2.13a23,23,0,0,1,2.77-2.48,4.91,4.91,0,0,1,3.69-.79,7.64,7.64,0,0,1,2.84,1.15,16.79,16.79,0,0,1,1.63,1.23C223.75,424.19,223.94,424.38,223.91,424.41Z" style="fill:#263238"></path><path d="M207.64,411.46c.19-1.1-1.25-2.7-2.15-3.35a3.52,3.52,0,0,0-3.34-.63,7.8,7.8,0,0,1-1.88,1.06c-1.38.3-2.83-1.1-4.11-.5s-1.06,2.51-1.79,3.73a11.55,11.55,0,0,1-1.39,1.5,6.08,6.08,0,0,0-1.35,4.33,17.72,17.72,0,0,0,1,4.53c2.63-.93,2.86-5.2,5.54-6,.66-.2,1.43-.15,1.95-.59s.65-1.34,1.15-1.88a2.85,2.85,0,0,1,2.35-.6c.84.07,1.82-.59,2.45,0,2.4,2.16,2.17-1.14,1.44-1.65" style="fill:#455a64"></path><path d="M201.73,410.16a2.2,2.2,0,0,1,.74-.07,14.35,14.35,0,0,1,2,.08,7.5,7.5,0,0,1,2.93.91,4.89,4.89,0,0,1,2.34,2.95,21.2,21.2,0,0,1,.57,3.68c.1,1.08.2,2.08.29,3a14.43,14.43,0,0,1,.13,2.77,15.69,15.69,0,0,1-.5-2.73c-.12-.9-.25-1.9-.4-3a25.34,25.34,0,0,0-.58-3.58,4.56,4.56,0,0,0-2.09-2.69,8,8,0,0,0-2.74-1C202.79,410.28,201.72,410.25,201.73,410.16Z" style="fill:#263238"></path><polygon points="118.11 360.53 108.28 350.89 93.71 349.47 82.98 356.99 81.19 360.96 118.11 360.53" style="opacity:0.1"></polygon><path d="M83.38,299.8c-.82-1.57-2.57-3.3-4.34-3.26-1.16,0-2.32.47-3.44.19-2.18-.54-3.27-3.57-5.52-3.63s-3.29,2.85-5.2,4.07a16.91,16.91,0,0,1-3,1.17,9.65,9.65,0,0,0-5,5.23A28.8,28.8,0,0,0,55,310.74c4.43.53,7.78-5.41,12.17-4.65,1.08.19,2.14.79,3.21.54s1.86-1.46,3-1.88,2.63.13,3.78.81,2.88,4.95,7.38,3.15l-.29-.51C85.31,306.78,84.2,301.37,83.38,299.8Z" style="fill:#455a64"></path><path d="M76.24,301.54a2,2,0,0,1,.5.32l1.37,1a25,25,0,0,1,2.1,1.7c.79.7,1.72,1.45,2.65,2.4.47.47,1,1,1.48,1.46s1,1.09,1.52,1.67c1.07,1.13,2.08,2.46,3.17,3.83a67.28,67.28,0,0,1,6,9.67,68.48,68.48,0,0,1,4.18,10.6c.46,1.7.92,3.3,1.2,4.84.15.76.32,1.49.43,2.21s.2,1.4.3,2.06c.22,1.31.26,2.51.35,3.56s.12,1.95.12,2.69v1.71a2.44,2.44,0,0,1,0,.59,2.49,2.49,0,0,1-.07-.59c0-.45-.06-1-.1-1.7s-.07-1.64-.2-2.68-.19-2.23-.43-3.53c-.1-.65-.21-1.33-.32-2s-.31-1.44-.46-2.19c-.3-1.53-.77-3.11-1.24-4.79a70.87,70.87,0,0,0-4.19-10.51,70.52,70.52,0,0,0-5.95-9.61c-1.07-1.37-2.06-2.7-3.12-3.84-.51-.57-1-1.15-1.48-1.67s-1-1-1.45-1.48c-.9-1-1.82-1.73-2.58-2.44s-1.46-1.3-2-1.76L76.67,302A3.43,3.43,0,0,1,76.24,301.54Z" style="fill:#263238"></path><path d="M82.55,321.6l.26-.06c-.87-1.54-4.27-2.05-6-2s-4.06,1-4.75,2.62c-.45,1.06-.53,2.31-1.25,3.21-1.39,1.77-4.6,1.51-5.57,3.54s1.24,4.17,1.56,6.41a16.88,16.88,0,0,1-.18,3.25,9.76,9.76,0,0,0,2.71,6.71,28.75,28.75,0,0,0,5.8,4.59c2.3-3.81-1.74-9.31.77-13,.61-.91,1.6-1.63,1.8-2.7s-.56-2.3-.49-3.48c.08-1.33,1.2-2.35,2.3-3.12s1.64-2.57,3-2.51C87.6,325.33,84,321.51,82.55,321.6Zm-6.8,12a1.61,1.61,0,1,1-1.12-2l.09,0A1.67,1.67,0,0,1,75.75,333.65Z" style="fill:#455a64"></path><path d="M74.25,326.15a5.21,5.21,0,0,1,.88-.8,25.9,25.9,0,0,1,2.62-1.92,12.26,12.26,0,0,1,4.49-1.8,8.15,8.15,0,0,1,2.91,0A7.94,7.94,0,0,1,88,322.89a35.29,35.29,0,0,1,4.4,3.93l3.41,3.37,2.27,2.3a6,6,0,0,1,.78.9,5.24,5.24,0,0,1-.92-.75l-2.39-2.18-3.48-3.29a37.84,37.84,0,0,0-4.36-3.85A7.64,7.64,0,0,0,85,322.16a7.79,7.79,0,0,0-2.72-.05,12.4,12.4,0,0,0-4.38,1.64C75.62,325.15,74.31,326.24,74.25,326.15Z" style="fill:#263238"></path><path d="M100.21,305.5c-.31-1.74,2-4.3,3.42-5.34s3.76-1.82,5.33-1c1,.53,1.87,1.45,3,1.69,2.2.48,4.51-1.75,6.55-.81s1.7,4,2.87,5.95a16.69,16.69,0,0,0,2.21,2.4,9.72,9.72,0,0,1,2.15,6.9,28.66,28.66,0,0,1-1.56,7.23c-4.2-1.49-4.57-8.3-8.84-9.56-1-.31-2.27-.24-3.12-.94s-1-2.13-1.83-3-2.41-1-3.75-.95-2.9-.95-3.89-.05c-3.84,3.45-3.46-1.81-2.3-2.63" style="fill:#455a64"></path><path d="M109.64,303.43c0,.11-1.7.1-4.38.49a12.4,12.4,0,0,0-4.43,1.51,8,8,0,0,0-2.07,1.77,7.62,7.62,0,0,0-1.33,2.6,39.06,39.06,0,0,0-.93,5.74c-.22,1.76-.42,3.36-.6,4.75s-.33,2.34-.45,3.2a5.47,5.47,0,0,1-.24,1.16,5.05,5.05,0,0,1,0-1.18c.08-.87.18-2,.29-3.22s.32-3,.5-4.77a35.75,35.75,0,0,1,.9-5.83,8,8,0,0,1,1.44-2.77,7.92,7.92,0,0,1,2.22-1.86,12.11,12.11,0,0,1,4.62-1.46,25.51,25.51,0,0,1,3.24-.19A6.4,6.4,0,0,1,109.64,303.43Z" style="fill:#263238"></path><polygon points="250.94 383.14 259.55 374.71 272.31 373.46 281.71 380.05 283.29 383.53 250.94 383.14" style="opacity:0.1"></polygon><path d="M278.38,322.35c.63-2,2.3-4.25,4.32-4.54,1.32-.19,2.73.09,4-.44,2.38-1,3-4.69,5.59-5.18s4.29,2.62,6.7,3.65a20.63,20.63,0,0,0,3.69.75,11.2,11.2,0,0,1,6.68,5,33.69,33.69,0,0,1,3.42,7.82c-4.94,1.44-9.89-4.69-14.75-3-1.19.42-2.29,1.3-3.55,1.21s-2.4-1.3-3.74-1.57c-1.51-.31-3,.64-4.15,1.64s-2.35,6.18-7.81,5l.23-.63C277.5,330.66,277.74,324.29,278.38,322.35Z" style="fill:#455a64"></path><path d="M286.84,323a2.7,2.7,0,0,1-.36.46l-1.09,1.26c-.48.53-1.06,1.2-1.7,2s-1.4,1.69-2.14,2.74-1.61,2.17-2.42,3.45-1.67,2.66-2.54,4.12a80.91,80.91,0,0,0-4.77,10,82.23,82.23,0,0,0-3.25,10.58c-.35,1.67-.71,3.25-.92,4.75s-.43,2.9-.57,4.18-.21,2.44-.3,3.46-.11,1.91-.12,2.63-.05,1.22-.06,1.66a2.23,2.23,0,0,1-.06.58,2.65,2.65,0,0,1-.05-.58c0-.43,0-1,0-1.66s0-1.61,0-2.64.07-2.2.22-3.49.26-2.7.51-4.21.54-3.1.88-4.78a79.56,79.56,0,0,1,3.23-10.67,77,77,0,0,1,4.84-10c.89-1.47,1.71-2.87,2.6-4.12s1.69-2.4,2.49-3.43,1.55-1.92,2.21-2.7,1.26-1.44,1.77-2l1.17-1.19A2.61,2.61,0,0,1,286.84,323Z" style="fill:#263238"></path><path d="M284.25,351c1.51-.32,2.48,1.64,3.87,2.3s2.86,1.61,3.2,3.12c.31,1.32-.36,2.77.11,4s1.69,1.82,2.57,2.74c3.55,3.72,0,10.75,3.35,14.66a33.35,33.35,0,0,0,5.72-6.33,11.17,11.17,0,0,0,1.82-8.15,20.58,20.58,0,0,1-.83-3.68c-.05-2.61,2.07-5.46.57-7.6s-5.1-1.22-7-3c-1-.89-1.31-2.3-2-3.42-1.1-1.73-3.88-2.3-5.92-2.08s-5.81,1.45-6.5,3.38l.3,0C281.83,347.19,278.42,352.23,284.25,351Zm10,6,.1-.05a1.88,1.88,0,1,1-.1.05Z" style="fill:#455a64"></path><path d="M293.78,350.64c0,.09-1.74-.9-4.64-2.07a14.41,14.41,0,0,0-5.32-1.05,9.33,9.33,0,0,0-3.11.58,8.93,8.93,0,0,0-2.84,1.84,44.36,44.36,0,0,0-4.24,5.22c-1.24,1.64-2.36,3.13-3.34,4.41L268,362.52a6.83,6.83,0,0,1-.9,1,6.4,6.4,0,0,1,.73-1.16l2.16-3,3.25-4.48a40.55,40.55,0,0,1,4.27-5.31,9.08,9.08,0,0,1,3-1.94,9.44,9.44,0,0,1,3.29-.58,14.25,14.25,0,0,1,5.45,1.19,30.3,30.3,0,0,1,3.35,1.67A5.57,5.57,0,0,1,293.78,350.64Z" style="fill:#263238"></path><path d="M260.29,332c0-2.05-3.09-4.52-4.92-5.44s-4.63-1.36-6.26-.12c-1.07.8-1.86,2-3.1,2.5-2.41,1-5.47-1.15-7.62.32s-1.16,4.89-2.13,7.32a19.37,19.37,0,0,1-2.06,3.15,11.2,11.2,0,0,0-1.15,8.27A33.72,33.72,0,0,0,236.2,356c4.51-2.49,3.64-10.32,8.27-12.56,1.14-.56,2.54-.71,3.36-1.67s.77-2.62,1.52-3.76c.85-1.29,2.55-1.66,4.09-1.8s3.13-1.63,4.43-.8c5,3.2,3.6-2.71,2.12-3.44" style="fill:#455a64"></path><path d="M249.15,331.48a6.57,6.57,0,0,1,1.35-.29,31.61,31.61,0,0,1,3.72-.39,14.06,14.06,0,0,1,5.52.8,8.78,8.78,0,0,1,5,4.56,41.39,41.39,0,0,1,2.14,6.47l1.48,5.33.95,3.61a7.66,7.66,0,0,1,.28,1.34,7.83,7.83,0,0,1-.48-1.29c-.29-.93-.66-2.13-1.11-3.56l-1.58-5.3a45.1,45.1,0,0,0-2.15-6.37,8.38,8.38,0,0,0-4.73-4.34,14.16,14.16,0,0,0-5.34-.88C251.1,331.24,249.16,331.58,249.15,331.48Z" style="fill:#263238"></path><polygon points="182.01 345.64 186.54 341.19 193.27 340.53 198.22 344 199.05 345.84 182.01 345.64" style="opacity:0.1"></polygon><path d="M196.46,313.6a3.47,3.47,0,0,1,2.28-2.39,8,8,0,0,0,2.09-.23c1.25-.54,1.6-2.47,2.94-2.73s2.26,1.38,3.53,1.92a9.78,9.78,0,0,0,1.95.4,5.93,5.93,0,0,1,3.52,2.64,18.33,18.33,0,0,1,1.8,4.13c-2.61.76-5.21-2.47-7.77-1.58a5,5,0,0,1-1.87.65c-.72-.06-1.27-.69-2-.83a2.77,2.77,0,0,0-2.19.86c-.62.53-1.24,3.26-4.12,2.63l.13-.33C196,318,196.13,314.63,196.46,313.6Z" style="fill:#455a64"></path><path d="M200.92,313.93c.07.07-1.1,1.28-2.71,3.46a39.2,39.2,0,0,0-2.59,4,44.35,44.35,0,0,0-2.5,5.25,45.11,45.11,0,0,0-1.71,5.56,39.85,39.85,0,0,0-.81,4.68c-.3,2.7-.28,4.39-.37,4.39a4.93,4.93,0,0,1-.1-1.19,30.66,30.66,0,0,1,.1-3.23,37.24,37.24,0,0,1,.71-4.76,41.69,41.69,0,0,1,1.7-5.64,40.24,40.24,0,0,1,2.56-5.3,35.13,35.13,0,0,1,2.71-4,27.82,27.82,0,0,1,2.14-2.44A5.94,5.94,0,0,1,200.92,313.93Z" style="fill:#263238"></path><path d="M199.56,328.7c.79-.17,1.3.86,2,1.21a2.76,2.76,0,0,1,1.68,1.64c.16.7-.19,1.46.06,2.13s.89,1,1.35,1.45c1.88,2,0,5.66,1.77,7.72a17.29,17.29,0,0,0,3-3.33,5.87,5.87,0,0,0,1-4.3,11,11,0,0,1-.43-1.93c0-1.38,1.09-2.88.29-4s-2.68-.64-3.7-1.56a7.75,7.75,0,0,1-1.06-1.81,3.42,3.42,0,0,0-3.12-1.09c-1.07.12-3.06.76-3.43,1.78h.16C198.28,326.69,196.49,329.35,199.56,328.7Zm5.29,3.15.05,0a1,1,0,0,1,.84,1.78,1,1,0,0,1-1.31-.44A1,1,0,0,1,204.85,331.85Z" style="fill:#455a64"></path><path d="M204.58,328.51c0,.08-1-.42-2.48-1a7.86,7.86,0,0,0-2.77-.52,4.46,4.46,0,0,0-3.05,1.25,23.53,23.53,0,0,0-2.22,2.73c-.65.83-1.24,1.6-1.78,2.31a14.49,14.49,0,0,1-1.75,2.05,13.12,13.12,0,0,1,1.45-2.27c.51-.73,1.08-1.52,1.69-2.38a21.45,21.45,0,0,1,2.26-2.82,4.79,4.79,0,0,1,3.4-1.35,7.57,7.57,0,0,1,2.91.66,15.28,15.28,0,0,1,1.75.92C204.39,328.32,204.6,328.48,204.58,328.51Z" style="fill:#263238"></path><path d="M186.93,318.71c0-1.08-1.62-2.38-2.59-2.86a3.4,3.4,0,0,0-3.3-.07c-.56.42-1,1.06-1.63,1.32-1.27.51-2.88-.61-4,.17s-.62,2.57-1.12,3.86a10.46,10.46,0,0,1-1.09,1.65,5.89,5.89,0,0,0-.6,4.36,17.32,17.32,0,0,0,1.65,4.19c2.38-1.32,1.92-5.44,4.36-6.63.6-.29,1.34-.37,1.77-.87s.41-1.39.8-2a2.77,2.77,0,0,1,2.16-1c.81-.07,1.64-.86,2.33-.42,2.65,1.68,1.9-1.43,1.12-1.81" style="fill:#455a64"></path><path d="M181.07,318.41a2.08,2.08,0,0,1,.7-.19,13.06,13.06,0,0,1,2-.25,7.37,7.37,0,0,1,2.95.4,4.77,4.77,0,0,1,2.71,2.46,20.44,20.44,0,0,1,1.13,3.43l.75,2.82a13.25,13.25,0,0,1,.57,2.63,13.39,13.39,0,0,1-.92-2.53l-.86-2.79a23.8,23.8,0,0,0-1.13-3.33,4.39,4.39,0,0,0-2.42-2.24,7.71,7.71,0,0,0-2.78-.48C182.11,318.36,181.08,318.5,181.07,318.41Z" style="fill:#263238"></path><polygon points="428.01 372.08 432.55 367.64 439.27 366.98 444.23 370.45 445.06 372.28 428.01 372.08" style="opacity:0.1"></polygon><path d="M442.47,340.05a3.43,3.43,0,0,1,2.28-2.39,8,8,0,0,0,2.08-.23c1.26-.54,1.6-2.47,2.95-2.73s2.26,1.38,3.53,1.92a10.44,10.44,0,0,0,1.94.4,5.93,5.93,0,0,1,3.52,2.64,17.58,17.58,0,0,1,1.8,4.12c-2.6.76-5.21-2.47-7.77-1.57-.62.22-1.2.69-1.87.64s-1.26-.68-2-.83a2.76,2.76,0,0,0-2.19.87c-.62.52-1.23,3.26-4.11,2.63l.12-.34C442,344.43,442.14,341.08,442.47,340.05Z" style="fill:#455a64"></path><path d="M446.93,340.38c.07.07-1.11,1.28-2.72,3.46a41.64,41.64,0,0,0-2.59,4,44.36,44.36,0,0,0-2.49,5.25,45.23,45.23,0,0,0-1.72,5.56,41.43,41.43,0,0,0-.8,4.68c-.31,2.7-.28,4.38-.38,4.38a6.1,6.1,0,0,1-.09-1.18,26,26,0,0,1,.1-3.23,35.3,35.3,0,0,1,.71-4.76,36.76,36.76,0,0,1,4.26-10.94,34.24,34.24,0,0,1,2.71-4,25.28,25.28,0,0,1,2.13-2.44A5.14,5.14,0,0,1,446.93,340.38Z" style="fill:#263238"></path><path d="M445.56,355.14c.8-.16,1.31.87,2,1.22a2.72,2.72,0,0,1,1.69,1.64c.16.7-.19,1.46.06,2.13s.89,1,1.35,1.45c1.87,2,0,5.66,1.76,7.72a17.1,17.1,0,0,0,3-3.34,5.93,5.93,0,0,0,1-4.29,10.88,10.88,0,0,1-.44-1.94c0-1.38,1.09-2.87.3-4s-2.69-.65-3.7-1.57a8.08,8.08,0,0,1-1.07-1.8,3.4,3.4,0,0,0-3.11-1.09c-1.08.11-3.06.76-3.43,1.77l.16,0C444.29,353.14,442.49,355.8,445.56,355.14Zm5.29,3.16.06,0a1,1,0,1,1-.06,0Z" style="fill:#455a64"></path><path d="M450.59,355c0,.08-1-.42-2.48-1a7.64,7.64,0,0,0-2.77-.52,4.37,4.37,0,0,0-3,1.25,23.65,23.65,0,0,0-2.23,2.73l-1.78,2.31a12.67,12.67,0,0,1-1.75,2A15.41,15.41,0,0,1,438,359.5c.51-.73,1.08-1.52,1.69-2.38a20.7,20.7,0,0,1,2.25-2.82,4.78,4.78,0,0,1,3.4-1.35,7.35,7.35,0,0,1,2.91.66,13.4,13.4,0,0,1,1.76.92C450.39,354.77,450.6,354.92,450.59,355Z" style="fill:#263238"></path><path d="M432.94,345.16c0-1.08-1.63-2.38-2.59-2.87a3.43,3.43,0,0,0-3.3-.06c-.56.42-1,1.06-1.63,1.32-1.27.5-2.89-.61-4,.17s-.61,2.57-1.12,3.85a9.89,9.89,0,0,1-1.09,1.66,5.94,5.94,0,0,0-.6,4.36,17.7,17.7,0,0,0,1.66,4.18c2.37-1.31,1.91-5.43,4.35-6.62.6-.29,1.34-.37,1.78-.88s.4-1.38.8-2a2.73,2.73,0,0,1,2.15-.94c.81-.07,1.65-.86,2.33-.43,2.66,1.69,1.9-1.43,1.12-1.81" style="fill:#455a64"></path><path d="M427.07,344.86a2.31,2.31,0,0,1,.7-.19,13.24,13.24,0,0,1,2-.25,7.33,7.33,0,0,1,2.95.4,4.81,4.81,0,0,1,2.72,2.45,20.83,20.83,0,0,1,1.13,3.44l.75,2.81a14.39,14.39,0,0,1,.57,2.64,13.71,13.71,0,0,1-.92-2.54c-.27-.84-.55-1.78-.86-2.78a23.89,23.89,0,0,0-1.14-3.33,4.36,4.36,0,0,0-2.42-2.24,7.66,7.66,0,0,0-2.77-.48C428.11,344.8,427.08,345,427.07,344.86Z" style="fill:#263238"></path><path d="M272.77,278a3.43,3.43,0,0,1,2.28-2.39,7.9,7.9,0,0,0,2.08-.23c1.26-.54,1.61-2.47,2.95-2.73s2.26,1.38,3.53,1.92a10.61,10.61,0,0,0,1.94.4,5.93,5.93,0,0,1,3.52,2.64,17.48,17.48,0,0,1,1.8,4.13c-2.6.76-5.2-2.47-7.76-1.58a4.78,4.78,0,0,1-1.88.64c-.71,0-1.26-.68-2-.82a2.77,2.77,0,0,0-2.19.86c-.63.52-1.24,3.26-4.12,2.63l.13-.33C272.31,282.36,272.44,279,272.77,278Z" style="fill:#455a64"></path><path d="M277.23,278.31c.07.07-1.11,1.28-2.72,3.46a41.06,41.06,0,0,0-2.58,4,44.35,44.35,0,0,0-2.5,5.25,43.45,43.45,0,0,0-1.71,5.56,39.85,39.85,0,0,0-.81,4.68c-.31,2.7-.28,4.39-.37,4.39a4.93,4.93,0,0,1-.1-1.19,28.14,28.14,0,0,1,.1-3.23,35.54,35.54,0,0,1,.71-4.76,38.63,38.63,0,0,1,1.7-5.64,39.64,39.64,0,0,1,2.56-5.3,35.13,35.13,0,0,1,2.71-4,28,28,0,0,1,2.13-2.44A5.14,5.14,0,0,1,277.23,278.31Z" style="fill:#263238"></path><path d="M275.87,293.08c.79-.17,1.3.86,2,1.21a2.75,2.75,0,0,1,1.69,1.64c.16.7-.19,1.46.06,2.13s.89,1,1.35,1.45c1.87,2,0,5.66,1.77,7.72a17.05,17.05,0,0,0,3-3.34,5.93,5.93,0,0,0,1-4.29,11,11,0,0,1-.44-1.93c0-1.38,1.1-2.88.3-4s-2.69-.64-3.7-1.56a8.15,8.15,0,0,1-1.07-1.81,3.39,3.39,0,0,0-3.11-1.09c-1.07.12-3.06.76-3.43,1.78h.16C274.59,291.07,272.79,293.73,275.87,293.08Zm5.29,3.15,0,0a1,1,0,1,1-.47,1.34A1,1,0,0,1,281.16,296.23Z" style="fill:#455a64"></path><path d="M280.89,292.89c0,.08-.95-.42-2.48-1a7.86,7.86,0,0,0-2.77-.52,4.42,4.42,0,0,0-3.05,1.25,24.74,24.74,0,0,0-2.23,2.73l-1.78,2.31a14.93,14.93,0,0,1-1.74,2.05,13.12,13.12,0,0,1,1.45-2.27c.51-.73,1.08-1.52,1.69-2.38a22.18,22.18,0,0,1,2.25-2.82,4.79,4.79,0,0,1,3.41-1.35,7.3,7.3,0,0,1,2.9.66,14.74,14.74,0,0,1,1.76.92C280.7,292.7,280.9,292.86,280.89,292.89Z" style="fill:#263238"></path><path d="M263.24,283.09c0-1.08-1.63-2.38-2.59-2.86a3.4,3.4,0,0,0-3.3-.07c-.56.42-1,1.06-1.63,1.32-1.27.5-2.88-.61-4,.17s-.62,2.57-1.13,3.85a10.49,10.49,0,0,1-1.08,1.66,5.94,5.94,0,0,0-.61,4.36,17.77,17.77,0,0,0,1.66,4.19c2.38-1.32,1.92-5.44,4.36-6.63.6-.29,1.34-.37,1.77-.87s.4-1.39.8-2a2.77,2.77,0,0,1,2.15-.94c.81-.07,1.65-.86,2.34-.42,2.65,1.68,1.89-1.43,1.12-1.81" style="fill:#455a64"></path><path d="M257.37,282.79a2.32,2.32,0,0,1,.71-.19,12.9,12.9,0,0,1,2-.25,7.4,7.4,0,0,1,3,.4,4.77,4.77,0,0,1,2.71,2.46,20.44,20.44,0,0,1,1.13,3.43c.27,1,.52,2,.75,2.81a13.4,13.4,0,0,1,.57,2.64,13.39,13.39,0,0,1-.92-2.53l-.86-2.79a25.17,25.17,0,0,0-1.13-3.33,4.38,4.38,0,0,0-2.43-2.24,7.66,7.66,0,0,0-2.77-.48C258.41,282.74,257.38,282.88,257.37,282.79Z" style="fill:#263238"></path><path d="M148.66,355.29c-.73-1.41-2.31-3-3.91-2.93-1,0-2.08.42-3.09.17-2-.49-2.94-3.22-5-3.27s-3,2.57-4.68,3.67a17,17,0,0,1-2.74,1.05,8.71,8.71,0,0,0-4.49,4.71,26.32,26.32,0,0,0-1.63,6.45c4,.48,7-4.87,11-4.18,1,.17,1.92.71,2.88.48s1.68-1.31,2.68-1.69a4,4,0,0,1,3.4.73c1,.61,2.59,4.45,6.64,2.84l-.26-.46C150.4,361.57,149.4,356.71,148.66,355.29Z" style="fill:#455a64"></path><path d="M142.23,356.86s.16.07.43.26l1.17.85c.51.37,1.11.84,1.78,1.43s1.47,1.21,2.26,2,1.69,1.63,2.57,2.62,1.79,2.06,2.73,3.21a56.37,56.37,0,0,1,9.11,16.93c.44,1.42.88,2.76,1.17,4.05s.59,2.48.79,3.58.33,2.11.45,3,.19,1.65.22,2.27.06,1.05.08,1.44a1.83,1.83,0,0,1,0,.51,1.89,1.89,0,0,1-.1-.5c0-.39-.1-.86-.17-1.43s-.15-1.38-.31-2.25-.27-1.87-.52-3-.48-2.29-.84-3.55-.77-2.59-1.22-4a64.83,64.83,0,0,0-3.83-8.77,66.33,66.33,0,0,0-5.2-8c-.92-1.14-1.78-2.25-2.67-3.21s-1.72-1.86-2.51-2.64-1.54-1.46-2.19-2.06-1.23-1.1-1.72-1.49l-1.1-.92A2.52,2.52,0,0,1,142.23,356.86Z" style="fill:#263238"></path><path d="M147.91,374.92l.23-.06c-.78-1.39-3.84-1.85-5.43-1.76s-3.66.89-4.28,2.36a11.48,11.48,0,0,1-1.12,2.89c-1.25,1.59-4.14,1.35-5,3.18s1.12,3.75,1.41,5.77a15.21,15.21,0,0,1-.16,2.93,8.76,8.76,0,0,0,2.44,6,26.1,26.1,0,0,0,5.21,4.13c2.08-3.43-1.56-8.38.7-11.7.55-.82,1.44-1.47,1.62-2.44s-.5-2.07-.44-3.12a4.09,4.09,0,0,1,2.07-2.81c1-.69,1.47-2.32,2.68-2.26C152.46,378.27,149.19,374.83,147.91,374.92Zm-6.12,10.85a1.45,1.45,0,1,1-1-1.84l.09,0A1.51,1.51,0,0,1,141.79,385.77Z" style="fill:#455a64"></path><path d="M140.44,379a5.15,5.15,0,0,1,.79-.73,24.19,24.19,0,0,1,2.35-1.73,11.23,11.23,0,0,1,4.06-1.63,7.7,7.7,0,0,1,2.62,0,7.19,7.19,0,0,1,2.58,1.12,31.24,31.24,0,0,1,4,3.54l3.06,3c.87.87,1.56,1.58,2,2.08s.72.78.69.81a4.46,4.46,0,0,1-.83-.67c-.52-.45-1.25-1.12-2.15-2L156.48,380a33.69,33.69,0,0,0-3.93-3.46,6.54,6.54,0,0,0-4.84-1.09,11.21,11.21,0,0,0-3.94,1.47C141.69,378.12,140.5,379.1,140.44,379Z" style="fill:#263238"></path><path d="M163.81,360.42c-.28-1.57,1.79-3.86,3.08-4.81s3.39-1.63,4.8-.89a11.87,11.87,0,0,0,2.7,1.52c2,.43,4.06-1.58,5.9-.73s1.52,3.61,2.58,5.36a14.9,14.9,0,0,0,2,2.15,8.75,8.75,0,0,1,1.94,6.22,25.59,25.59,0,0,1-1.4,6.5c-3.78-1.33-4.11-7.47-8-8.6-1-.28-2.05-.22-2.8-.85s-.93-1.92-1.65-2.69a4.08,4.08,0,0,0-3.38-.86c-1.2.09-2.61-.85-3.5-.05-3.46,3.11-3.12-1.62-2.08-2.37" style="fill:#455a64"></path><path d="M172.3,358.56c0,.1-1.53.11-3.94.46a11.23,11.23,0,0,0-4,1.36,6.54,6.54,0,0,0-3,3.92,34.78,34.78,0,0,0-.84,5.16c-.2,1.58-.39,3-.55,4.28s-.31,2.2-.42,2.88a4.21,4.21,0,0,1-.22,1.05,3.86,3.86,0,0,1,0-1.07c0-.69.14-1.68.25-2.9s.28-2.71.44-4.29a31.6,31.6,0,0,1,.82-5.26,7.16,7.16,0,0,1,1.29-2.5,7.35,7.35,0,0,1,2-1.68,10.81,10.81,0,0,1,4.17-1.31,21.48,21.48,0,0,1,2.92-.16A4.46,4.46,0,0,1,172.3,358.56Z" style="fill:#263238"></path><polygon points="151.19 406.88 158.58 399.63 169.54 398.56 177.61 404.22 178.96 407.2 151.19 406.88" style="opacity:0.1"></polygon></g><g id="freepik--plant-1--inject-93"><path d="M196.5,250.55c-.62.21-13.48,16.65-13,34s2.21,19.49,2.21,19.49l3.4.42s7.1-19.34,8.44-32.12A66.32,66.32,0,0,0,196.5,250.55Z" style="fill:#263238"></path><path d="M184.43,244.91c-.57.31-10.3,19.87-6.67,38.65s5.72,20.82,5.72,20.82h3.43s3.51-21.93,2.52-36A80.39,80.39,0,0,0,184.43,244.91Z" style="fill:#455a64"></path><path d="M193,252s2.29,25.08.95,31.7-7.06,20.67-7.06,20.67h2.7s8.56-12.46,13.52-22.4S199.31,256.9,193,252Z" style="fill:#455a64"></path><path d="M165.93,247.12c-.38.63-10.68,22.08-4.39,32.49s17,24.77,17,24.77h5S168.22,280.09,168.22,272,165.93,247.12,165.93,247.12Z" style="fill:#263238"></path><path d="M207,247.12c.38.63,10.68,22.08,4.39,32.49s-17,24.77-17,24.77h-5S204.7,280.09,204.7,272,207,247.12,207,247.12Z" style="fill:#263238"></path><path d="M173,247.12s-3,17.15-1.49,29.15c1.59,13.08,11.22,27.53,11.22,27.53l4.19-6.68-4.57-26.34S178.77,254.81,173,247.12Z" style="fill:#455a64"></path><path d="M150.48,260.21c-.19.47-.57,19.09,6.1,26.66s21.94,17.51,21.94,17.51l5.56-.07s-21.58-23.59-25.4-29.67S150.48,260.21,150.48,260.21Z" style="fill:#455a64"></path><path d="M217.82,260.21s-7.63,19.88-11.64,24-17.55,20.19-17.55,20.19h7.12s14.06-17.2,18.64-22.09S217.82,260.21,217.82,260.21Z" style="fill:#455a64"></path></g><g id="freepik--Sun--inject-93"><circle cx="285.72" cy="59.44" r="31.53" style="fill:#FF725E"></circle><circle cx="285.72" cy="59.44" r="31.53" style="fill:#fff;opacity:0.9"></circle><circle cx="285.72" cy="59.44" r="28.12" transform="translate(41.66 219.44) rotate(-45)" style="fill:#FF725E"></circle><circle cx="285.72" cy="59.44" r="28.12" transform="translate(41.66 219.44) rotate(-45)" style="fill:#fff;opacity:0.6000000000000001"></circle><circle cx="285.72" cy="59.44" r="23.4" style="fill:#FF725E"></circle><circle cx="285.72" cy="59.44" r="23.4" style="fill:#fff;opacity:0.30000000000000004"></circle><circle cx="285.72" cy="59.44" r="18.74" style="fill:#FF725E"></circle></g><g id="freepik--Character--inject-93"><path d="M356.7,402.77l1.08,19.43s-19.63,7.6-19.79,11.21l38.21-.71-.42-30.33Z" style="fill:#263238"></path><path d="M369.56,420.34a1.54,1.54,0,0,1,1.11,1.74,1.5,1.5,0,0,1-1.73,1.11,1.63,1.63,0,0,1-1.17-1.85,1.55,1.55,0,0,1,1.93-.95" style="fill:#e0e0e0"></path><path d="M376.2,432.7l-.16-3.06-36.58,1.83s-1.68.76-1.47,1.94Z" style="fill:#455a64"></path><path d="M357.15,422c0,.18,1,.25,1.88.82s1.43,1.34,1.6,1.27-.13-1.14-1.27-1.82S357.11,421.85,357.15,422Z" style="fill:#fff"></path><path d="M353.18,423.73c0,.18.77.48,1.42,1.24s.85,1.59,1,1.58.29-1.05-.54-2S353.18,423.55,353.18,423.73Z" style="fill:#fff"></path><path d="M351,428.51c.17,0,.41-.89-.09-1.89s-1.37-1.39-1.45-1.23.47.68.87,1.51S350.8,428.49,351,428.51Z" style="fill:#fff"></path><path d="M357.4,417.56c.09.17.94-.1,2-.05s1.89.37,2,.21-.71-.81-1.95-.85S357.31,417.42,357.4,417.56Z" style="fill:#fff"></path><path d="M406.87,401.88l2.07,23.45-3.77,19a2.41,2.41,0,0,0,2.09,2.86h0a2.47,2.47,0,0,0,2.1-.76c3.4-3.67,15.86-17.22,15.62-18.93-.29-2-.52-24.87-.52-24.87Z" style="fill:#263238"></path><path d="M407.26,447.2l17.61-21.27.07,1a3.66,3.66,0,0,1-.72,2.41c-1.4,1.84-5.36,6.86-14.79,17.11a2.48,2.48,0,0,1-2.17.76Z" style="fill:#455a64"></path><g style="opacity:0.6000000000000001"><path d="M419.5,418.66a1.38,1.38,0,0,0,1.65,2.22,1.52,1.52,0,0,0,.29-2,1.49,1.49,0,0,0-2.05-.09" style="fill:#fff"></path></g><path d="M412,436.59a5.35,5.35,0,0,0-5-2c0-.05.26-.26.82-.37a3.85,3.85,0,0,1,2.15.24,3.73,3.73,0,0,1,1.69,1.34C412,436.22,412.08,436.57,412,436.59Z" style="fill:#fff"></path><path d="M410.54,439.84a21.33,21.33,0,0,0-2.18-.87,18.74,18.74,0,0,0-2.34-.15,2.73,2.73,0,0,1,2.46-.36C409.91,438.78,410.66,439.77,410.54,439.84Z" style="fill:#fff"></path><path d="M414.92,432.36a12.63,12.63,0,0,0-6.84-2.17,6.73,6.73,0,0,1,6.84,2.17Z" style="fill:#fff"></path><path d="M414.89,425.18c-.05.14-1.4-.31-3.12-.27s-3,.54-3.1.4a6.15,6.15,0,0,1,6.22-.13Z" style="fill:#fff"></path><path d="M414.46,418.28a11.92,11.92,0,0,0-3.24-.36,12.49,12.49,0,0,0-3.1,1s.2-.36.73-.7a5.14,5.14,0,0,1,2.32-.79,5.22,5.22,0,0,1,2.44.32C414.19,418,414.49,418.23,414.46,418.28Z" style="fill:#fff"></path><path d="M411.18,416.6a1.87,1.87,0,0,1-.09-.88,6.27,6.27,0,0,1,.56-2.37,2.76,2.76,0,0,1,1.11-1.39,1,1,0,0,1,1.11.15,1.54,1.54,0,0,1,.45,1,3.41,3.41,0,0,1-2.81,3.33,4,4,0,0,1-4.06-1.81,1.36,1.36,0,0,1-.14-1.14,1,1,0,0,1,1-.56,3.5,3.5,0,0,1,1.62.7,6.87,6.87,0,0,1,1.74,1.73,2,2,0,0,1,.42.78,11.32,11.32,0,0,0-2.37-2.2,3.11,3.11,0,0,0-1.42-.58.5.5,0,0,0-.53.3.94.94,0,0,0,.13.74,3.59,3.59,0,0,0,3.54,1.54,3,3,0,0,0,2.43-2.8,1.15,1.15,0,0,0-.28-.74.54.54,0,0,0-.62-.09,2.44,2.44,0,0,0-.95,1.15A9.21,9.21,0,0,0,411.18,416.6Z" style="fill:#fff"></path><path d="M339.67,236.2s-4.37,13.94-3.23,27.44c.44,5.22,16.07,151.32,16.07,151.32h26.16l-7.35-135.81,2.14.43s13.43,59.92,14.59,69.3c1.05,8.43,13.94,67.66,13.94,67.66l23.92.25-9.23-78.72-7.3-80L406,235.45Z" style="fill:#263238"></path><path d="M326.81,104.12s-23.91,27.51-27.24,32.42-1.76,11.41,0,13.52S346.07,169,346.07,169l5.52-27-28.1-6.71,13.85-21.45Z" style="fill:#ffbf9d"></path><path d="M406.34,173.18c1,.6,19.5,19.6,19.5,19.6l-20.37,26.37s7.75,7.64,9,6.89,24.46-20.59,30.2-26,3-11.24,2.39-12.82-25.46-35-30.21-39.88c-3.65-3.77-8-2.67-9.26-2.9s-9.84,16.31-9.84,16.31Z" style="fill:#ffbf9d"></path><path d="M413.22,180.16l-2.8-36.36L393,140.21l-1.77-.46s-2.56,7.25-15.95,6.54c-8.19-.43-7.76-5.65-7.76-5.65s-6.67.63-7.11.63-8.83.67-8.83.67l-5.52,27L338,242.47l-1.73,4.8L355,250a90.62,90.62,0,0,0,32.09-1l22-4.69-4.33-20Z" style="fill:#FF725E"></path><path d="M352.77,141.69s-.7-1.94-2.46-1.21a4.64,4.64,0,0,1-2.67.49l-15.57-4.18-1.4,28.65,17.75,5.86,8.39-22.71Z" style="fill:#FF725E"></path><path d="M406.48,143s6.5.2,10.29,2.73,23.38,28.44,23.38,28.44-19.91,17.77-19.43,17.1-10.59-11.1-10.59-11.1Z" style="fill:#FF725E"></path><path d="M349.06,149.18c.15,0-.42,5.58-1.26,12.42S346.17,174,346,174s.42-5.58,1.26-12.42S348.92,149.16,349.06,149.18Z" style="fill:#263238"></path><path d="M404.41,169.23a3.84,3.84,0,0,1-.77-.78,13.18,13.18,0,0,1-1.66-2.51,15.07,15.07,0,0,1,3.36-18.27,13.11,13.11,0,0,1,2.44-1.76,3.55,3.55,0,0,1,1-.45,28.08,28.08,0,0,0-3.19,2.48,15.29,15.29,0,0,0-3.28,17.84A29.07,29.07,0,0,0,404.41,169.23Z" style="fill:#263238"></path><path d="M392.61,117.2a74.47,74.47,0,0,0,3.72-12.42,26.19,26.19,0,0,0-.56-12.84c-.21-.62-2-4.82-2.66-4.78-.47,0,.59,3.92.34,4.32a22.24,22.24,0,0,0-3,12.88,59,59,0,0,0,2.13,12.84" style="fill:#e0e0e0"></path><path d="M391.22,140.25,392.8,101c.75-10.83-4.1-20.55-14.95-21l-1.18,0a19.23,19.23,0,0,0-18.85,18c-.59,9.44-1.14,19.92-1,25,.31,10.41,10.75,11.85,10.75,11.85s0,4.2-.09,7.26c0,0,1.39,4.84,10.37,4.48C387.57,146.19,391.22,140.25,391.22,140.25Z" style="fill:#ffbf9d"></path><path d="M367.59,134.83a25.15,25.15,0,0,0,13.49-4.25s-3.1,8.06-13.5,7.3Z" style="fill:#ff9a6c"></path><path d="M361.4,109a1.48,1.48,0,0,0,1.46,1.47,1.42,1.42,0,0,0,1.51-1.36,1.49,1.49,0,0,0-1.46-1.48A1.42,1.42,0,0,0,361.4,109Z" style="fill:#263238"></path><path d="M360.45,103.74c.19.19,1.3-.66,2.9-.68s2.79.75,3,.55-.11-.43-.63-.79a4,4,0,0,0-2.37-.69,3.82,3.82,0,0,0-2.3.79C360.52,103.3,360.36,103.66,360.45,103.74Z" style="fill:#263238"></path><path d="M374.84,108.49A1.49,1.49,0,0,0,376.3,110a1.42,1.42,0,0,0,1.51-1.37,1.48,1.48,0,0,0-1.46-1.48A1.43,1.43,0,0,0,374.84,108.49Z" style="fill:#263238"></path><path d="M375.08,104c.19.19,1.3-.66,2.9-.69s2.79.76,3,.56-.11-.43-.63-.8a4.12,4.12,0,0,0-2.37-.68,3.88,3.88,0,0,0-2.31.79C375.15,103.54,375,103.9,375.08,104Z" style="fill:#263238"></path><path d="M370.21,116.35a11.11,11.11,0,0,0-2.61-.42c-.41,0-.8-.11-.87-.39a2.06,2.06,0,0,1,.25-1.21c.37-1,.75-2,1.15-3.14,1.6-4.46,2.76-8.12,2.58-8.18s-1.63,3.5-3.23,8c-.38,1.1-.75,2.14-1.1,3.15a2.32,2.32,0,0,0-.19,1.6,1,1,0,0,0,.69.59,2.22,2.22,0,0,0,.69.08A10.55,10.55,0,0,0,370.21,116.35Z" style="fill:#263238"></path><path d="M374.91,97.28c0,.47,1.6.77,3.31,1.57s3,1.76,3.36,1.47c.16-.14,0-.62-.41-1.21a6.4,6.4,0,0,0-5.08-2.31C375.35,96.85,374.91,97.07,374.91,97.28Z" style="fill:#e0e0e0"></path><path d="M360.17,99.15c.4.28,1.56-.39,3.06-.76s2.82-.43,3-.87c.08-.21-.2-.52-.84-.72a5,5,0,0,0-2.63,0,4.74,4.74,0,0,0-2.27,1.3C360.08,98.61,360,99,360.17,99.15Z" style="fill:#e0e0e0"></path><path d="M392.09,108.62c.18-.08,7.12-2.24,7,4.88s-7.23,5.55-7.24,5.35S392.09,108.62,392.09,108.62Z" style="fill:#ffbf9d"></path><path d="M394.19,116.21s.13.09.34.19a1.27,1.27,0,0,0,.92,0,3.06,3.06,0,0,0,1.46-2.73,4.14,4.14,0,0,0-.32-1.79,1.42,1.42,0,0,0-.92-1,.62.62,0,0,0-.73.33c-.1.19-.06.34-.1.35s-.15-.12-.09-.42a.8.8,0,0,1,.29-.44,1,1,0,0,1,.69-.17,1.75,1.75,0,0,1,1.28,1.12,4.32,4.32,0,0,1,.4,2c-.07,1.43-.82,2.76-1.85,3a1.36,1.36,0,0,1-1.14-.21C394.21,116.38,394.17,116.22,394.19,116.21Z" style="fill:#ff9a6c"></path><path d="M362.7,86.48c-1.14-.66,2.4-4.31,5.27-5.53,4.32-1.85,10.89-2.89,14.81-1.68,4.72,1.46,8.62,3.92,10.9,8.3A27.91,27.91,0,0,1,396.49,102a8.45,8.45,0,0,1-1.1,4.32c-1,1.56-3,2.5-2.93,4.68a3,3,0,0,1-.79,2.15c-1.34,1.36-2.9,0-3.61-1.3-1.5-2.83-1.59-6.16-1.66-9.36a21,21,0,0,1,.61-6.77c.38-1.18,1-2.28,1.27-3.48a4.24,4.24,0,0,0-.42-3.57,4.68,4.68,0,0,0-.56-.6A7.44,7.44,0,0,0,380,86.45c-4,1.32-10.94,3.28-12.7,1.88A10.9,10.9,0,0,1,364.15,85Z" style="fill:#e0e0e0"></path><path d="M375.67,119.88c.05-.11-.28-.42-1-.66a5,5,0,0,0-2.77-.12,5.16,5.16,0,0,0-2.45,1.31c-.5.51-.67.94-.58,1s1.36-1,3.24-1.41S375.56,120.12,375.67,119.88Z" style="fill:#263238"></path><path d="M328.82,100.85a45.6,45.6,0,0,1,2.63-6.07c1.2-2.4,11-12.35,11-12.35l12,10.17.72,5.78-6.07,8-3.3,1.84L340,110.39l-2.77,4.88L324.6,104.12Z" style="fill:#e0e0e0"></path><path d="M341.91,83.48a2.75,2.75,0,0,1,2.69-2.07,1.39,1.39,0,0,1,.69.18,8.32,8.32,0,0,1,1.93,2.11,3.82,3.82,0,0,1,2.84-.66,3,3,0,0,1,1.69,1.87s1.39-2.24,3.08-1.75,2.36,2.65,1.93,3.38-4,8.63-5.55,8.75-3.56-1.81-3.56-1.81-1.21,3.26-2.84,3.26a2.4,2.4,0,0,1-2.47-3.14,7.77,7.77,0,0,0,.66-2.29s-2.93,0-2.54-2.24C340.59,88.38,341.4,85.36,341.91,83.48Z" style="fill:#e0e0e0"></path><path d="M341.91,83.48a2.94,2.94,0,0,1-.11.67c-.11.49-.26,1.12-.44,1.89s-.44,1.83-.72,3a1.48,1.48,0,0,0,.47,1.56,3.17,3.17,0,0,0,1.89.55h.21v.19a11.09,11.09,0,0,1-.72,2.53,1.93,1.93,0,0,0,.85,2.2,2.59,2.59,0,0,0,1.28.45,1.47,1.47,0,0,0,1.2-.47,7.58,7.58,0,0,0,1.6-2.63l.14-.33.27.24A7.3,7.3,0,0,0,350.65,95a1.16,1.16,0,0,0,.7,0,2.22,2.22,0,0,0,.6-.53A12.23,12.23,0,0,0,353,93c.77-1.2,1.43-2.45,2.07-3.67L356,87.5l.46-.91a1,1,0,0,0,.16-.38,1.46,1.46,0,0,0,0-.42,2.74,2.74,0,0,0-2.11-2.45,2,2,0,0,0-1.48.49,5.14,5.14,0,0,0-1.1,1.19l-.26.38-.14-.43a2.5,2.5,0,0,0-1.87-1.82,3.9,3.9,0,0,0-2.35.69l-.15.09-.1-.14a6.72,6.72,0,0,0-2-2.15A2.34,2.34,0,0,0,343,82a3.52,3.52,0,0,0-1.12,1.48A1.4,1.4,0,0,1,342,83a2.87,2.87,0,0,1,.88-1.15,2.5,2.5,0,0,1,2.26-.47,6.66,6.66,0,0,1,2.18,2.23l-.24,0a4.19,4.19,0,0,1,2.6-.8A2.9,2.9,0,0,1,352,84.85l-.39-.06a5.48,5.48,0,0,1,1.19-1.32,2.54,2.54,0,0,1,1.82-.6,3.19,3.19,0,0,1,2.54,2.87,2.11,2.11,0,0,1,0,.56,1.88,1.88,0,0,1-.22.53l-.44.89-.92,1.84c-.64,1.23-1.31,2.48-2.09,3.71a12.48,12.48,0,0,1-1.1,1.52,3.06,3.06,0,0,1-.76.65,1.64,1.64,0,0,1-1,0,7.48,7.48,0,0,1-3.06-1.83l.4-.09a7.73,7.73,0,0,1-1.74,2.8,2,2,0,0,1-1.57.59,3,3,0,0,1-1.5-.54,2.56,2.56,0,0,1-1-1.21,2.31,2.31,0,0,1,0-1.49,11,11,0,0,0,.73-2.41l.2.19a3.49,3.49,0,0,1-2.11-.67,1.77,1.77,0,0,1-.55-1.88l.81-3,.54-1.87A3.62,3.62,0,0,1,341.91,83.48Z" style="fill:#263238"></path><path d="M354,92.3s-3.57-9,4.75-12.71,14.93,5.73,17,7.34A23.24,23.24,0,0,1,379.55,91s-5.73-6.26-8.95-6.71-8.35,3.59-11.15,9.13Z" style="fill:#FF725E"></path><path d="M392.65,93.82s-8,1-12.83-2.56l-8.2-8.11L379.77,85S389.25,89.28,392.65,93.82Z" style="fill:#FF725E"></path><path d="M381.71,79c-.24,0-9.48-1.62-16,2.92l5.68,2.42S387.63,90.22,391.6,94a21.06,21.06,0,0,1,5.26,9.16h0a10.48,10.48,0,0,0,.58-5.78c-.57-3-1.69-7.68-3.57-10.61C390,80.73,381.71,79,381.71,79Z" style="fill:#FF725E"></path><path d="M350.67,105.49s9.05-7.06,9.05-7.84,1-8.82.54-9.3-1.81-.36-3.07,1.33-1.51,4.95-2.48,5.55-2.41,1.81-2.6,1.57-10.32-1.21-14,.72-4,4.83-4,4.83l12.67,5.44Z" style="fill:#e0e0e0"></path><path d="M347,83.78a5.58,5.58,0,0,1-.38,1.23c-.25.74-.51,1.8-.93,3A6.62,6.62,0,0,1,344,90.65c-.63.55-1.15.67-1.17.62s.4-.31.91-.88a8,8,0,0,0,1.46-2.6c.41-1.12.73-2.18,1.08-2.91S346.93,83.75,347,83.78Z" style="fill:#263238"></path><path d="M351.93,84.92a12.27,12.27,0,0,1-1.54,4.87,12.1,12.1,0,0,1-3,4.13c-.12-.1,1.29-1.88,2.53-4.37S351.78,84.89,351.93,84.92Z" style="fill:#263238"></path><path d="M350.69,97.25c0,.08-.78-.2-2-.44A14.58,14.58,0,0,0,339,98.25a19.11,19.11,0,0,1-1.83,1,5.75,5.75,0,0,1,1.64-1.33,12.94,12.94,0,0,1,9.92-1.48A5.21,5.21,0,0,1,350.69,97.25Z" style="fill:#263238"></path><path d="M380.27,91.56a5.17,5.17,0,0,1-1-.76c-.59-.52-1.43-1.3-2.44-2.29-2-2-4.67-4.86-8-7.59a10,10,0,0,0-2.64-1.54,8.88,8.88,0,0,0-2.78-.53,10.31,10.31,0,0,0-4.71,1A19.07,19.07,0,0,0,355,82.4a3.7,3.7,0,0,1,.82-.93,11.64,11.64,0,0,1,2.75-1.94,10.31,10.31,0,0,1,4.88-1.16,9.43,9.43,0,0,1,2.95.53,10.38,10.38,0,0,1,2.78,1.61,92.39,92.39,0,0,1,7.9,7.74l2.32,2.4A6,6,0,0,1,380.27,91.56Z" style="fill:#263238"></path><path d="M374.25,85.74a14,14,0,0,1,2.76.82c1.67.59,3.95,1.5,6.41,2.66s4.6,2.34,6.12,3.26a13.93,13.93,0,0,1,2.38,1.61,19.21,19.21,0,0,1-2.57-1.29c-1.56-.83-3.72-2-6.16-3.11s-4.68-2.11-6.31-2.79A18,18,0,0,1,374.25,85.74Z" style="fill:#263238"></path><path d="M384,96.05a5.34,5.34,0,0,1-.71,1.76,1.56,1.56,0,0,0,.11,1.78,1.15,1.15,0,0,0,1.62-.27,1.9,1.9,0,0,0,.11-1.78A5.54,5.54,0,0,0,384.06,96" style="fill:#fff"></path><path d="M417.83,224.24l-10.47-9.53L400.93,221s-9.36,6.68-11,7.83-6.66,6.66-7.26,7.53-2.25,7.48-2.25,7.48,2.12,1.3,3.15-.76a40.71,40.71,0,0,0,1.85-4.21l2.51-2.4s-.53,3.19-.26,4,2.34,1.27,3.75.8c0,0,.21,1.41,3,1.14,0,0,3,1.61,4.69,1s3.36-.54,4.5-1.07,3.09-4.23,3-5.17-1.61-1.61-1.61-1.61a34.61,34.61,0,0,0,5-3.22,5,5,0,0,0,1.67-3.83Z" style="fill:#e0e0e0"></path><path d="M389.32,233.52c.11.11-.48.84-.91,1.89s-.57,2-.72,2-.25-1,.24-2.17S389.23,233.42,389.32,233.52Z" style="fill:#263238"></path><path d="M392.39,236c0,.07-.24.26-.53.68a3.9,3.9,0,0,0-.66,1.84,10.06,10.06,0,0,0,.06,2c.06.54.07.88,0,.89s-.21-.29-.36-.82a6,6,0,0,1-.22-2.17,3.37,3.37,0,0,1,.9-2C392,236,392.37,235.89,392.39,236Z" style="fill:#263238"></path><path d="M395.81,237.61c.05,0-.11.31-.38.7a5,5,0,0,0-.81,1.58,7.55,7.55,0,0,0-.17,1.79c0,.47,0,.78-.11.79s-.17-.28-.26-.76a4.67,4.67,0,0,1,0-2,3.64,3.64,0,0,1,1-1.68C395.5,237.73,395.76,237.57,395.81,237.61Z" style="fill:#263238"></path><path d="M399.59,239.49a7.26,7.26,0,0,1,2.23-2.34,7.17,7.17,0,0,1,2.83-1.58,17.49,17.49,0,0,1-2.51,2A16.94,16.94,0,0,1,399.59,239.49Z" style="fill:#263238"></path></g></svg>
